# This file uses centimeters as units for non-parametric coordinates.

v 0.690659 -0.124246 -0.286080
v 0.286080 -0.124246 -0.690659
v -0.286080 -0.124246 -0.690659
v -0.690659 -0.124246 -0.286080
v -0.690659 -0.124246 0.286080
v -0.286080 -0.124246 0.690659
v 0.286080 -0.124246 0.690659
v 0.690659 -0.124246 0.286080
v 0.800103 -0.500000 -0.331414
v 0.331414 -0.500000 -0.800103
v -0.331414 -0.500000 -0.800103
v -0.800103 -0.500000 -0.331414
v -0.800103 -0.500000 0.331414
v -0.331414 -0.500000 0.800103
v 0.331414 -0.500000 0.800103
v 0.800103 -0.500000 0.331414
v 0.923879 -0.000000 -0.382683
v 0.382683 -0.000000 -0.923880
v -0.382683 -0.000000 -0.923879
v -0.923880 -0.000000 -0.382683
v -0.923879 -0.000000 0.382683
v -0.382683 -0.000000 0.923880
v 0.382683 -0.000000 0.923880
v 0.923880 -0.000000 0.382683
v 0.800103 0.500000 -0.331414
v 0.331414 0.500000 -0.800103
v -0.331414 0.500000 -0.800103
v -0.800103 0.500000 -0.331414
v -0.800103 0.500000 0.331414
v -0.331414 0.500000 0.800103
v 0.331414 0.500000 0.800103
v 0.800103 0.500000 0.331414
v 0.461940 0.759198 -0.191342
v 0.191342 0.759198 -0.461940
v -0.191342 0.759198 -0.461940
v -0.461940 0.759198 -0.191342
v -0.461940 0.759198 0.191342
v -0.191342 0.759198 0.461940
v 0.191342 0.759198 0.461940
v 0.461940 0.759198 0.191342
v -0.427493 -0.124247 -0.177073
v -0.177073 -0.124247 -0.427493
v 0.177073 -0.124247 -0.427493
v 0.427493 -0.124247 -0.177073
v 0.427493 -0.124247 0.177073
v 0.177073 -0.124247 0.427493
v -0.177073 -0.124247 0.427493
v -0.427493 -0.124247 0.177073
v 0.690661 -1.107926 0.160518
v 0.690661 -1.107926 -0.160518
v 0.642961 -1.107927 0.094300
v 0.642961 -1.107927 -0.094300
v -0.690661 -1.107926 -0.160518
v -0.690661 -1.107926 0.160518
v -0.642961 -1.107927 -0.094300
v -0.642961 -1.107927 0.094300
v 0.111661 0.049145 -0.269573
v 0.269573 0.049145 -0.111661
v -0.000000 -0.727724 -0.000000
v -0.111661 0.049145 -0.269573
v -0.269573 0.049145 -0.111661
v -0.269573 0.049145 0.111661
v -0.111661 0.049145 0.269573
v 0.111661 0.049145 0.269573
v 0.269573 0.049145 0.111661
v 0.945932 -0.230703 -0.391818
v 0.391818 -0.230703 -0.945932
v 0.363741 0.551877 -0.878149
v 0.878149 0.551877 -0.363741
v -0.391818 -0.230703 -0.945932
v -0.363741 0.551877 -0.878149
v -0.945932 -0.230703 -0.391818
v -0.878149 0.551877 -0.363741
v -0.945932 -0.230703 0.391818
v -0.878149 0.551877 0.363741
v -0.391818 -0.230703 0.945932
v -0.363741 0.551877 0.878149
v 0.391818 -0.230703 0.945932
v 0.363741 0.551877 0.878149
v 0.945932 -0.230703 0.391818
v 0.878149 0.551877 0.363741
v 0.424525 0.283776 -1.024894
v -0.424525 0.283776 -1.024894
v -1.024894 0.283776 -0.424525
v -1.024894 0.283776 0.424525
v -0.424525 0.283776 1.024894
v 0.424525 0.283776 1.024894
v 1.024894 0.283776 0.424525
v 1.024894 0.283776 -0.424525
v -0.423967 0.034887 1.023546
v 0.423967 0.034887 1.023546
v 1.023546 0.034887 0.423967
v 1.023546 0.034887 -0.423967
v 0.423967 0.034887 -1.023546
v -0.423967 0.034887 -1.023546
v -1.023546 0.034887 -0.423967
v -1.023546 0.034887 0.423967
vt 0.304499 0.665158
vt 0.304499 0.767073
vt 0.232054 0.767073
vt 0.232054 0.649009
vt 0.304499 0.868988
vt 0.232054 0.885138
vt 0.461600 0.665158
vt 0.461600 0.767073
vt 0.389155 0.767073
vt 0.389155 0.649009
vt 0.461600 0.868988
vt 0.389155 0.885138
vt 0.423283 0.562780
vt 0.423283 0.444715
vt 0.519682 0.444715
vt 0.519682 0.581044
vt 0.423283 0.326651
vt 0.519682 0.308386
vt 0.218422 0.626820
vt 0.218422 0.508756
vt 0.314822 0.508756
vt 0.314822 0.645085
vt 0.218422 0.390691
vt 0.314822 0.372426
vt 0.632036 0.304462
vt 0.632036 0.153227
vt 0.683725 0.153227
vt 0.683725 0.282808
vt 0.584050 0.304263
vt 0.584050 0.153227
vt 0.632036 0.001992
vt 0.683725 0.023646
vt 0.532845 0.292810
vt 0.532845 0.153227
vt 0.584050 0.002191
vt 0.532845 0.013644
vt 0.929376 0.610856
vt 0.929376 0.459621
vt 0.981066 0.459621
vt 0.981066 0.589202
vt 0.881391 0.610657
vt 0.881391 0.459621
vt 0.929376 0.308386
vt 0.981066 0.330040
vt 0.830185 0.599204
vt 0.830185 0.459621
vt 0.881391 0.308585
vt 0.830185 0.320038
vt 0.686803 0.968262
vt 0.647024 0.968262
vt 0.686803 0.818482
vt 0.726581 0.968262
vt 0.515626 0.968261
vt 0.475847 0.968261
vt 0.515626 0.818482
vt 0.555404 0.968261
vt 0.914476 0.804432
vt 0.812561 0.804432
vt 0.834927 0.614780
vt 0.892111 0.614780
vt 0.569620 0.781128
vt 0.506539 0.781128
vt 0.505385 0.591476
vt 0.538979 0.591476
vt 0.569620 0.814558
vt 0.529842 0.814558
vt 0.467705 0.781129
vt 0.490071 0.591476
vt 0.632702 0.781128
vt 0.609399 0.814558
vt 0.981066 0.998008
vt 0.879151 0.998008
vt 0.901516 0.808356
vt 0.958700 0.808356
vt 0.742048 0.781129
vt 0.678967 0.781129
vt 0.677813 0.591476
vt 0.711407 0.591476
vt 0.742048 0.814558
vt 0.702270 0.814558
vt 0.640133 0.781129
vt 0.662499 0.591477
vt 0.805130 0.781129
vt 0.781827 0.814558
vt 0.773644 0.311640
vt 0.773644 0.447969
vt 0.729165 0.447969
vt 0.729165 0.308386
vt 0.773644 0.584298
vt 0.729165 0.587552
vt 0.672623 0.311640
vt 0.672623 0.447969
vt 0.628144 0.447969
vt 0.628144 0.308386
vt 0.672623 0.584298
vt 0.628144 0.587553
vt 0.185214 0.281647
vt 0.117049 0.253412
vt 0.088814 0.185247
vt 0.117049 0.117083
vt 0.185214 0.088848
vt 0.253378 0.117083
vt 0.281613 0.185247
vt 0.253378 0.253412
vt 0.185214 0.352216
vt 0.067149 0.303312
vt 0.018245 0.185247
vt 0.067149 0.067183
vt 0.185214 0.018279
vt 0.303278 0.067183
vt 0.352182 0.185247
vt 0.303278 0.303312
vt 0.185214 0.368503
vt 0.055632 0.314829
vt 0.001958 0.185247
vt 0.055632 0.055666
vt 0.185214 0.001992
vt 0.314795 0.055666
vt 0.368469 0.185247
vt 0.314795 0.314829
vt 0.212391 0.618471
vt 0.110476 0.576256
vt 0.149310 0.537423
vt 0.212391 0.563552
vt 0.068262 0.474341
vt 0.123180 0.474341
vt 0.110476 0.372426
vt 0.149310 0.411260
vt 0.156135 0.474341
vt 0.172612 0.514120
vt 0.172612 0.434563
vt 0.446129 0.889061
vt 0.469816 0.946245
vt 0.456434 0.937970
vt 0.442519 0.904376
vt 0.001958 0.622394
vt 0.103873 0.664609
vt 0.065040 0.703442
vt 0.001958 0.677313
vt 0.146088 0.766524
vt 0.091169 0.766524
vt 0.103873 0.868439
vt 0.065040 0.829605
vt 0.058214 0.766524
vt 0.041737 0.726745
vt 0.041737 0.806303
vt 0.432877 0.946245
vt 0.409190 0.889061
vt 0.422572 0.897337
vt 0.436487 0.930931
vt 0.225948 0.665158
vt 0.225948 0.767073
vt 0.153503 0.767073
vt 0.153503 0.649009
vt 0.225948 0.868988
vt 0.153503 0.885138
vt 0.310604 0.868988
vt 0.310604 0.767073
vt 0.383049 0.767073
vt 0.383049 0.885138
vt 0.310604 0.665158
vt 0.383049 0.649009
vt 0.622113 0.326651
vt 0.622113 0.444715
vt 0.525714 0.444715
vt 0.525714 0.308386
vt 0.622113 0.562780
vt 0.525714 0.581044
vt 0.320853 0.626820
vt 0.320853 0.508756
vt 0.417252 0.508756
vt 0.417252 0.645085
vt 0.320853 0.390691
vt 0.417252 0.372426
vt 0.427433 0.001992
vt 0.427433 0.153227
vt 0.375744 0.153227
vt 0.375744 0.023646
vt 0.475419 0.002191
vt 0.475419 0.153227
vt 0.427433 0.304462
vt 0.375744 0.282808
vt 0.526624 0.013644
vt 0.526624 0.153227
vt 0.475419 0.304263
vt 0.526624 0.292810
vt 0.789137 0.304462
vt 0.789137 0.153227
vt 0.840826 0.153227
vt 0.840826 0.282808
vt 0.741151 0.304263
vt 0.741151 0.153227
vt 0.789137 0.001992
vt 0.840826 0.023646
vt 0.689946 0.292810
vt 0.689946 0.153227
vt 0.741151 0.002191
vt 0.689946 0.013644
vt 0.772391 0.818482
vt 0.812170 0.818482
vt 0.772391 0.968262
vt 0.732613 0.818482
vt 0.601214 0.968262
vt 0.561435 0.968262
vt 0.601214 0.818482
vt 0.640993 0.968262
vt 0.976684 0.804432
vt 0.921766 0.804432
vt 0.954039 0.614780
vt 0.967421 0.614780
vt 0.818201 0.808356
vt 0.873120 0.808356
vt 0.840847 0.998008
vt 0.827465 0.998008
vt 0.824154 0.311640
vt 0.824154 0.447969
vt 0.779675 0.447969
vt 0.779675 0.308386
vt 0.824154 0.584298
vt 0.779675 0.587552
vt 0.678654 0.584298
vt 0.678654 0.447969
vt 0.723134 0.447969
vt 0.723134 0.587553
vt 0.678654 0.311640
vt 0.723134 0.308386
vn -0.678896 -0.279644 0.678896
vn -0.678896 -0.279644 0.678896
vn -0.678896 -0.279644 0.678896
vn -0.678896 -0.279644 0.678896
vn 0.000000 -0.279644 0.960104
vn 0.000000 -0.279644 0.960104
vn 0.000000 -0.279644 0.960104
vn 0.000000 -0.279644 0.960104
vn 0.678896 -0.279644 0.678896
vn 0.678896 -0.279644 0.678896
vn 0.678896 -0.279644 0.678896
vn 0.678896 -0.279644 0.678896
vn 0.960104 -0.279644 -0.000000
vn 0.960104 -0.279644 -0.000000
vn 0.960104 -0.279644 -0.000000
vn 0.960104 -0.279644 -0.000000
vn 0.678896 -0.279644 -0.678896
vn 0.678896 -0.279644 -0.678896
vn 0.678896 -0.279644 -0.678896
vn 0.678896 -0.279645 -0.678896
vn -0.000000 -0.279644 -0.960104
vn -0.000000 -0.279644 -0.960104
vn -0.000000 -0.279644 -0.960104
vn -0.000000 -0.279644 -0.960104
vn -0.678896 -0.279644 -0.678896
vn -0.678896 -0.279644 -0.678896
vn -0.678896 -0.279644 -0.678896
vn -0.678896 -0.279644 -0.678896
vn -0.960104 -0.279645 0.000000
vn -0.960104 -0.279645 0.000000
vn -0.960104 -0.279645 0.000000
vn -0.960104 -0.279645 0.000000
vn 0.686388 -0.240299 -0.686388
vn 0.686388 -0.240299 -0.686388
vn 0.686388 -0.240299 -0.686388
vn 0.686388 -0.240299 -0.686388
vn -0.000000 -0.240299 -0.970699
vn -0.000000 -0.240299 -0.970699
vn -0.000000 -0.240299 -0.970699
vn -0.000000 -0.240299 -0.970699
vn -0.686388 -0.240299 -0.686388
vn -0.686388 -0.240299 -0.686388
vn -0.686388 -0.240299 -0.686388
vn -0.686388 -0.240299 -0.686388
vn -0.970699 -0.240299 0.000000
vn -0.970699 -0.240299 0.000000
vn -0.970699 -0.240299 0.000000
vn -0.970699 -0.240299 0.000000
vn -0.686388 -0.240299 0.686388
vn -0.686388 -0.240299 0.686388
vn -0.686388 -0.240299 0.686388
vn -0.686388 -0.240299 0.686388
vn 0.000000 -0.240299 0.970699
vn 0.000000 -0.240299 0.970699
vn 0.000000 -0.240299 0.970699
vn 0.000000 -0.240299 0.970699
vn 0.686388 -0.240299 0.686388
vn 0.686388 -0.240299 0.686388
vn 0.686388 -0.240299 0.686388
vn 0.686388 -0.240299 0.686388
vn 0.970699 -0.240299 -0.000000
vn 0.970699 -0.240299 -0.000000
vn 0.970699 -0.240299 -0.000000
vn 0.970699 -0.240299 -0.000000
vn 0.891111 0.263968 -0.369110
vn 0.369110 0.263968 -0.891111
vn 0.329240 0.509711 -0.794856
vn 0.794856 0.509711 -0.329240
vn -0.369110 0.263968 -0.891111
vn -0.329240 0.509711 -0.794856
vn -0.891111 0.263968 -0.369110
vn -0.794856 0.509711 -0.329240
vn -0.891111 0.263968 0.369110
vn -0.794856 0.509711 0.329240
vn -0.369110 0.263968 0.891111
vn -0.329240 0.509711 0.794856
vn 0.369110 0.263968 0.891111
vn 0.329240 0.509711 0.794856
vn 0.891111 0.263969 0.369110
vn 0.794856 0.509711 0.329240
vn 0.430162 0.793675 -0.430162
vn 0.430162 0.793675 -0.430162
vn 0.430162 0.793675 -0.430162
vn 0.430162 0.793676 -0.430163
vn 0.000000 0.793675 -0.608341
vn 0.000000 0.793675 -0.608341
vn 0.000000 0.793676 -0.608341
vn 0.000000 0.793675 -0.608341
vn -0.430162 0.793675 -0.430162
vn -0.430163 0.793676 -0.430162
vn -0.430163 0.793675 -0.430162
vn -0.430162 0.793675 -0.430162
vn -0.608342 0.793675 -0.000000
vn -0.608342 0.793675 -0.000000
vn -0.608342 0.793675 -0.000000
vn -0.608342 0.793675 -0.000000
vn -0.430162 0.793675 0.430163
vn -0.430162 0.793676 0.430163
vn -0.430162 0.793675 0.430162
vn -0.430162 0.793675 0.430163
vn -0.000000 0.793675 0.608341
vn -0.000000 0.793675 0.608341
vn -0.000000 0.793675 0.608341
vn -0.000000 0.793675 0.608341
vn 0.430162 0.793675 0.430162
vn 0.430163 0.793676 0.430162
vn 0.430162 0.793675 0.430162
vn 0.430162 0.793675 0.430162
vn 0.608341 0.793676 0.000000
vn 0.608341 0.793676 0.000000
vn 0.608341 0.793676 0.000000
vn 0.608341 0.793676 0.000000
vn 0.668031 -0.327824 -0.668031
vn 0.668031 -0.327824 -0.668031
vn 0.668031 -0.327824 -0.668031
vn 0.000000 -0.327824 -0.944739
vn 0.000000 -0.327824 -0.944739
vn 0.000000 -0.327824 -0.944739
vn -0.668031 -0.327824 -0.668031
vn -0.668031 -0.327824 -0.668031
vn -0.668031 -0.327824 -0.668031
vn -0.944739 -0.327824 -0.000000
vn -0.944739 -0.327824 -0.000000
vn -0.944739 -0.327824 -0.000000
vn -0.668031 -0.327824 0.668031
vn -0.668031 -0.327824 0.668031
vn -0.668031 -0.327824 0.668031
vn -0.000000 -0.327824 0.944739
vn -0.000000 -0.327824 0.944739
vn -0.000000 -0.327824 0.944739
vn 0.668031 -0.327824 0.668031
vn 0.668031 -0.327824 0.668031
vn 0.668031 -0.327824 0.668031
vn 0.944739 -0.327824 -0.000000
vn 0.944739 -0.327824 -0.000000
vn 0.944739 -0.327824 -0.000000
vn -0.000000 1.000000 0.000000
vn -0.000000 1.000000 0.000000
vn -0.000000 1.000000 0.000000
vn -0.000000 1.000000 0.000000
vn -0.000000 1.000000 0.000000
vn -0.000000 1.000000 0.000000
vn -0.000000 1.000000 0.000000
vn -0.000000 1.000000 0.000000
vn -0.000002 -1.000000 -0.000002
vn -0.000002 -1.000000 -0.000002
vn -0.000002 -1.000000 -0.000002
vn -0.000002 -1.000000 -0.000002
vn -0.000000 -1.000000 -0.000003
vn -0.000000 -1.000000 -0.000003
vn -0.000000 -1.000000 -0.000003
vn -0.000000 -1.000000 -0.000003
vn 0.000002 -1.000000 -0.000002
vn 0.000002 -1.000000 -0.000002
vn 0.000002 -1.000000 -0.000002
vn 0.000002 -1.000000 -0.000002
vn 0.000020 -1.000000 -0.000001
vn 0.000020 -1.000000 -0.000001
vn 0.000020 -1.000000 -0.000001
vn 0.000020 -1.000000 -0.000001
vn 0.000002 -1.000000 0.000002
vn 0.000002 -1.000000 0.000002
vn 0.000002 -1.000000 0.000002
vn 0.000002 -1.000000 0.000002
vn -0.000000 -1.000000 0.000003
vn -0.000000 -1.000000 0.000003
vn -0.000000 -1.000000 0.000003
vn -0.000000 -1.000000 0.000003
vn -0.000002 -1.000000 0.000002
vn -0.000002 -1.000000 0.000002
vn -0.000002 -1.000000 0.000002
vn -0.000002 -1.000000 0.000002
vn -0.000025 -1.000000 0.000000
vn -0.000025 -1.000000 0.000000
vn -0.000025 -1.000000 0.000000
vn -0.000025 -1.000000 0.000000
vn 1.000000 0.000002 -0.000000
vn 1.000000 0.000002 -0.000000
vn 1.000000 0.000002 -0.000000
vn 1.000000 0.000002 -0.000000
vn -0.485879 -0.144497 0.861999
vn -0.485879 -0.144497 0.861999
vn -0.485879 -0.144497 0.861999
vn -0.485879 -0.144497 0.861999
vn -0.976840 -0.213970 -0.000000
vn -0.976840 -0.213970 -0.000000
vn -0.976840 -0.213970 -0.000000
vn -0.976840 -0.213970 -0.000000
vn -0.485879 -0.144497 -0.861999
vn -0.485879 -0.144497 -0.861999
vn -0.485879 -0.144497 -0.861999
vn -0.485879 -0.144497 -0.861999
vn -1.000000 0.000002 0.000000
vn -1.000000 0.000002 0.000000
vn -1.000000 0.000002 0.000000
vn -1.000000 0.000002 0.000000
vn 0.485879 -0.144497 -0.861999
vn 0.485879 -0.144497 -0.861999
vn 0.485879 -0.144497 -0.861999
vn 0.485879 -0.144497 -0.861999
vn 0.976840 -0.213970 0.000000
vn 0.976840 -0.213970 0.000000
vn 0.976840 -0.213970 0.000000
vn 0.976840 -0.213970 0.000000
vn 0.485879 -0.144497 0.861999
vn 0.485879 -0.144497 0.861999
vn 0.485879 -0.144497 0.861999
vn 0.485879 -0.144497 0.861999
vn -0.522782 -0.673349 0.522782
vn -0.522782 -0.673349 0.522782
vn -0.522782 -0.673349 0.522782
vn -0.522782 -0.673349 0.522782
vn 0.000000 -0.673349 0.739325
vn 0.000000 -0.673349 0.739325
vn 0.000000 -0.673349 0.739325
vn 0.000000 -0.673349 0.739325
vn 0.522782 -0.673349 0.522782
vn 0.522782 -0.673349 0.522782
vn 0.522782 -0.673349 0.522782
vn 0.522782 -0.673349 0.522782
vn 0.739325 -0.673349 -0.000000
vn 0.739325 -0.673349 -0.000000
vn 0.739325 -0.673349 -0.000000
vn 0.739325 -0.673349 -0.000000
vn 0.522782 -0.673349 -0.522781
vn 0.522782 -0.673349 -0.522781
vn 0.522782 -0.673349 -0.522782
vn 0.522782 -0.673349 -0.522781
vn -0.000000 -0.673349 -0.739325
vn -0.000000 -0.673349 -0.739325
vn -0.000000 -0.673349 -0.739325
vn -0.000000 -0.673349 -0.739325
vn -0.522782 -0.673349 -0.522782
vn -0.522782 -0.673349 -0.522782
vn -0.522782 -0.673349 -0.522782
vn -0.522782 -0.673349 -0.522782
vn -0.739325 -0.673349 0.000000
vn -0.739325 -0.673349 0.000000
vn -0.739325 -0.673349 0.000000
vn -0.739325 -0.673349 0.000000
vn -0.703898 -0.095154 0.703898
vn -0.703898 -0.095154 0.703898
vn -0.703898 -0.095154 0.703898
vn -0.703898 -0.095154 0.703898
vn -0.391430 0.832806 0.391430
vn -0.391430 0.832806 0.391430
vn -0.391430 0.832806 0.391430
vn -0.391430 0.832806 0.391430
vn 0.000000 -0.095154 0.995463
vn 0.000000 -0.095154 0.995463
vn 0.000000 -0.095154 0.995463
vn 0.000000 -0.095154 0.995463
vn -0.000000 0.832806 0.553566
vn -0.000000 0.832806 0.553566
vn -0.000000 0.832806 0.553566
vn -0.000000 0.832806 0.553566
vn 0.703898 -0.095155 0.703898
vn 0.703898 -0.095155 0.703898
vn 0.703898 -0.095155 0.703898
vn 0.703898 -0.095155 0.703898
vn 0.391430 0.832806 0.391430
vn 0.391430 0.832806 0.391430
vn 0.391430 0.832806 0.391430
vn 0.391430 0.832806 0.391430
vn 0.995463 -0.095154 -0.000000
vn 0.995463 -0.095154 -0.000000
vn 0.995463 -0.095154 -0.000000
vn 0.995463 -0.095154 -0.000000
vn 0.553566 0.832806 0.000000
vn 0.553566 0.832806 0.000000
vn 0.553566 0.832806 0.000000
vn 0.553566 0.832806 0.000000
vn 0.703899 -0.095154 -0.703898
vn 0.703899 -0.095154 -0.703898
vn 0.703899 -0.095154 -0.703898
vn 0.703899 -0.095154 -0.703898
vn 0.391430 0.832806 -0.391430
vn 0.391430 0.832806 -0.391430
vn 0.391430 0.832805 -0.391430
vn 0.391430 0.832806 -0.391430
vn -0.000000 -0.095154 -0.995463
vn -0.000000 -0.095154 -0.995463
vn -0.000000 -0.095154 -0.995463
vn -0.000000 -0.095154 -0.995463
vn 0.000000 0.832806 -0.553565
vn 0.000000 0.832806 -0.553565
vn 0.000000 0.832806 -0.553565
vn 0.000000 0.832806 -0.553565
vn -0.703898 -0.095154 -0.703898
vn -0.703898 -0.095154 -0.703898
vn -0.703898 -0.095154 -0.703898
vn -0.703898 -0.095154 -0.703898
vn -0.391430 0.832806 -0.391430
vn -0.391430 0.832806 -0.391430
vn -0.391430 0.832806 -0.391430
vn -0.391430 0.832806 -0.391430
vn -0.995463 -0.095154 0.000000
vn -0.995463 -0.095154 0.000000
vn -0.995463 -0.095154 0.000000
vn -0.995463 -0.095154 0.000000
vn -0.553566 0.832805 -0.000000
vn -0.553566 0.832806 -0.000000
vn -0.553566 0.832805 -0.000000
vn -0.553566 0.832805 -0.000000
vn 0.378051 -0.155129 -0.912695
vn -0.378051 -0.155128 -0.912695
vn -0.912695 -0.155128 -0.378051
vn -0.912695 -0.155128 0.378051
vn -0.378051 -0.155128 0.912695
vn 0.378051 -0.155128 0.912695
vn 0.912695 -0.155128 0.378051
vn 0.912695 -0.155128 -0.378051
vn -0.364866 -0.301584 0.880863
vn 0.364866 -0.301584 0.880863
vn 0.880863 -0.301584 0.364866
vn 0.880863 -0.301584 -0.364866
vn 0.364866 -0.301584 -0.880863
vn -0.364866 -0.301584 -0.880863
vn -0.880863 -0.301584 -0.364865
vn -0.880863 -0.301584 0.364866
f 1/151/1 2/152/2 10/153/3 9/154/4
f 2/152/5 3/155/6 11/156/7 10/153/8
f 3/1/9 4/2/10 12/3/11 11/4/12
f 4/2/13 5/5/14 13/6/15 12/3/16
f 5/157/17 6/158/18 14/159/19 13/160/20
f 6/158/21 7/161/22 15/162/23 14/159/24
f 7/7/25 8/8/26 16/9/27 15/10/28
f 8/8/29 1/11/30 9/12/31 16/9/32
f 9/163/33 10/164/34 18/165/35 17/166/36
f 10/164/37 11/167/38 19/168/39 18/165/40
f 11/13/41 12/14/42 20/15/43 19/16/44
f 12/14/45 13/17/46 21/18/47 20/15/48
f 13/169/49 14/170/50 22/171/51 21/172/52
f 14/170/53 15/173/54 23/174/55 22/171/56
f 15/19/57 16/20/58 24/21/59 23/22/60
f 16/20/61 9/23/62 17/24/63 24/21/64
f 89/175/65 82/176/66 68/177/67 69/178/68
f 82/176/66 83/181/69 71/182/70 68/177/67
f 83/25/69 84/26/71 73/27/72 71/28/70
f 84/26/71 85/31/73 75/32/74 73/27/72
f 85/187/73 86/188/75 77/189/76 75/190/74
f 86/188/75 87/193/77 79/194/78 77/189/76
f 87/37/77 88/38/79 81/39/80 79/40/78
f 88/38/79 89/43/65 69/44/68 81/39/80
f 25/112/81 26/105/82 34/97/83 33/104/84
f 26/105/85 27/106/86 35/98/87 34/97/88
f 27/106/89 28/107/90 36/99/91 35/98/92
f 28/107/93 29/108/94 37/100/95 36/99/96
f 29/108/97 30/109/98 38/101/99 37/100/100
f 30/109/101 31/110/102 39/102/103 38/101/104
f 31/110/105 32/111/106 40/103/107 39/102/108
f 32/111/109 25/112/110 33/104/111 40/103/112
f 57/199/113 58/200/114 59/201/115
f 60/202/116 57/199/117 59/201/118
f 61/49/119 60/50/120 59/51/121
f 62/52/122 61/49/123 59/51/124
f 63/203/125 62/204/126 59/205/127
f 64/206/128 63/203/129 59/205/130
f 65/53/131 64/54/132 59/55/133
f 58/56/134 65/53/135 59/55/136
f 34/97/137 35/98/138 36/99/139 37/100/140 38/101/141 39/102/142 40/103/143 33/104/144
f 4/121/145 3/122/146 42/123/147 41/124/148
f 3/122/149 2/125/150 43/126/151 42/123/152
f 2/125/153 1/127/154 44/128/155 43/126/156
f 50/132/157 49/133/158 51/134/159 52/135/160
f 8/136/161 7/137/162 46/138/163 45/139/164
f 7/137/165 6/140/166 47/141/167 46/138/168
f 6/140/169 5/142/170 48/143/171 47/141/172
f 54/147/173 53/148/174 55/149/175 56/150/176
f 1/57/177 8/58/178 49/59/179 50/60/180
f 8/207/181 45/208/182 51/209/183 49/210/184
f 45/61/185 44/62/186 52/63/187 51/64/188
f 44/62/189 1/67/190 50/68/191 52/63/192
f 5/71/193 4/72/194 53/73/195 54/74/196
f 4/211/197 41/212/198 55/213/199 53/214/200
f 41/75/201 48/76/202 56/77/203 55/78/204
f 48/76/205 5/81/206 54/82/207 56/77/208
f 43/126/209 44/128/210 58/131/211 57/129/212
f 42/123/213 43/126/214 57/129/215 60/130/216
f 41/75/217 42/83/218 60/84/219 61/79/220
f 48/76/221 41/75/222 61/79/223 62/80/224
f 47/141/225 48/143/226 62/146/227 63/144/228
f 46/138/229 47/141/230 63/144/231 64/145/232
f 45/61/233 46/69/234 64/70/235 65/65/236
f 44/62/237 45/61/238 65/65/239 58/66/240
f 17/215/241 18/216/242 67/217/243 66/218/244
f 26/105/245 25/112/246 69/120/247 68/113/248
f 18/216/249 19/219/250 70/220/251 67/217/252
f 27/106/253 26/105/254 68/113/255 71/114/256
f 19/85/257 20/86/258 72/87/259 70/88/260
f 28/107/261 27/106/262 71/114/263 73/115/264
f 20/86/265 21/89/266 74/90/267 72/87/268
f 29/108/269 28/107/270 73/115/271 75/116/272
f 21/221/273 22/222/274 76/223/275 74/224/276
f 30/109/277 29/108/278 75/116/279 77/117/280
f 22/222/281 23/225/282 78/226/283 76/223/284
f 31/110/285 30/109/286 77/117/287 79/118/288
f 23/91/289 24/92/290 80/93/291 78/94/292
f 32/111/293 31/110/294 79/118/295 81/119/296
f 24/92/297 17/95/298 66/96/299 80/93/300
f 25/112/301 32/111/302 81/119/303 69/120/304
f 94/180/305 95/185/306 83/181/69 82/176/66
f 95/29/306 96/30/307 84/26/71 83/25/69
f 96/30/307 97/35/308 85/31/73 84/26/71
f 97/191/308 90/192/309 86/188/75 85/187/73
f 90/192/309 91/197/310 87/193/77 86/188/75
f 91/41/310 92/42/311 88/38/79 87/37/77
f 92/42/311 93/47/312 89/43/65 88/38/79
f 93/179/312 94/180/305 82/176/66 89/175/65
f 76/196/313 78/198/314 91/197/310 90/192/309
f 78/45/314 80/46/315 92/42/311 91/41/310
f 80/46/315 66/48/316 93/47/312 92/42/311
f 66/183/316 67/184/317 94/180/305 93/179/312
f 67/184/317 70/186/318 95/185/306 94/180/305
f 70/33/318 72/34/319 96/30/307 95/29/306
f 72/34/319 74/36/320 97/35/308 96/30/307
f 74/195/320 76/196/313 90/192/309 97/191/308
