# This file uses centimeters as units for non-parametric coordinates.

v 0.591733 -0.428300 -0.000000
v 0.546690 -0.368707 -0.226447
v 0.418419 -0.368707 -0.418419
v 0.226446 -0.368707 -0.546690
v -0.000000 -0.368707 -0.591733
v -0.226447 -0.368707 -0.546690
v -0.418419 -0.368707 -0.418418
v -0.546690 -0.368707 -0.226446
v -0.591733 -0.428300 0.000000
v -0.546690 -0.368707 0.226447
v -0.418418 -0.368707 0.418419
v -0.226446 -0.368707 0.546690
v 0.000000 -0.368707 0.591733
v 0.226447 -0.368707 0.546690
v 0.418419 -0.368707 0.418418
v 0.546690 -0.368707 0.226446
v 0.686982 0.001082 0.000000
v 0.634689 0.001082 -0.262897
v 0.485770 0.001082 -0.485770
v 0.262897 0.001082 -0.634689
v -0.000000 0.001082 -0.686982
v -0.262897 0.001082 -0.634689
v -0.485770 0.001082 -0.485769
v -0.634689 0.001082 -0.262896
v -0.686982 0.001082 0.000000
v -0.634688 0.001082 0.262897
v -0.485769 0.001082 0.485770
v -0.262896 0.001082 0.634689
v 0.000000 0.001082 0.686982
v 0.262897 0.001082 0.634688
v 0.485770 0.001082 0.485769
v 0.634689 0.001082 0.262896
v 0.739667 -0.064949 0.000000
v 0.683363 -0.064949 -0.283058
v 0.523023 -0.064949 -0.523023
v 0.283058 -0.064949 -0.683363
v -0.000000 -0.064949 -0.739667
v -0.283058 -0.064949 -0.683363
v -0.523023 -0.064949 -0.523023
v -0.683363 -0.064949 -0.283058
v -0.739667 -0.064949 0.000000
v -0.683363 -0.064949 0.283058
v -0.523023 -0.064949 0.523024
v -0.283058 -0.064949 0.683363
v 0.000000 -0.064949 0.739667
v 0.283058 -0.064949 0.683363
v 0.523024 -0.064949 0.523023
v 0.683363 -0.064949 0.283058
v 0.696941 -0.428300 -0.000000
v 0.628553 -0.428300 -0.260355
v 0.481073 -0.428300 -0.481073
v 0.260355 -0.428300 -0.628553
v -0.000000 -0.428300 -0.680341
v -0.260355 -0.428300 -0.628553
v -0.481074 -0.428300 -0.481073
v -0.628553 -0.428300 -0.260355
v -0.696941 -0.428300 0.000000
v -0.628553 -0.428300 0.260355
v -0.481073 -0.428300 0.481074
v -0.260355 -0.428300 0.628553
v 0.000000 -0.428300 0.680341
v 0.260355 -0.428300 0.628553
v 0.481074 -0.428300 0.481073
v 0.628553 -0.428300 0.260355
v 0.604885 -1.032171 0.000000
v 0.558841 -1.032171 -0.156172
v 0.560607 -1.032171 0.000000
v 0.544734 -1.032171 -0.088107
v 0.558841 -1.032171 0.156172
v 0.544734 -1.032171 0.088107
v -0.558841 -1.032171 -0.156172
v -0.604885 -1.032171 0.000000
v -0.544734 -1.032171 -0.088107
v -0.560607 -1.032171 0.000000
v -0.558841 -1.032171 0.156172
v -0.544734 -1.032171 0.088107
vt 0.000000 1.000000
vt 0.062500 1.000000
vt 0.125000 1.000000
vt 0.187500 1.000000
vt 0.250000 1.000000
vt 0.312500 1.000000
vt 0.375000 1.000000
vt 0.437500 1.000000
vt 0.500000 1.000000
vt 0.562500 1.000000
vt 0.625000 1.000000
vt 0.687500 1.000000
vt 0.750000 1.000000
vt 0.812500 1.000000
vt 0.875000 1.000000
vt 0.937500 1.000000
vt 1.000000 1.000000
vt 0.000000 0.833333
vt 0.062500 0.833333
vt 0.125000 0.833333
vt 0.187500 0.833333
vt 0.250000 0.833333
vt 0.312500 0.833333
vt 0.375000 0.833333
vt 0.437500 0.833333
vt 0.500000 0.833333
vt 0.562500 0.833333
vt 0.625000 0.833333
vt 0.687500 0.833333
vt 0.750000 0.833333
vt 0.812500 0.833333
vt 0.875000 0.833333
vt 0.937500 0.833333
vt 1.000000 0.833333
vt 0.000000 0.333333
vt 0.062500 0.333333
vt 0.125000 0.333333
vt 0.187500 0.333333
vt 0.250000 0.333333
vt 0.312500 0.333333
vt 0.375000 0.333333
vt 0.437500 0.333333
vt 0.500000 0.333333
vt 0.562500 0.333333
vt 0.625000 0.333333
vt 0.687500 0.333333
vt 0.750000 0.333333
vt 0.812500 0.333333
vt 0.875000 0.333333
vt 0.937500 0.333333
vt 1.000000 0.333333
vt 0.000000 0.166667
vt 0.062500 0.166667
vt 0.125000 0.166667
vt 0.187500 0.166667
vt 0.250000 0.166667
vt 0.312500 0.166667
vt 0.375000 0.166667
vt 0.437500 0.166667
vt 0.500000 0.166667
vt 0.562500 0.166667
vt 0.625000 0.166667
vt 0.687500 0.166667
vt 0.750000 0.166667
vt 0.812500 0.166667
vt 0.875000 0.166667
vt 0.937500 0.166667
vt 1.000000 0.166667
vt 0.000000 -0.000000
vt 0.062500 -0.000000
vt 0.125000 -0.000000
vt 0.187500 -0.000000
vt 0.250000 -0.000000
vt 0.312500 -0.000000
vt 0.375000 -0.000000
vt 0.437500 -0.000000
vt 0.500000 -0.000000
vt 0.562500 -0.000000
vt 0.625000 -0.000000
vt 0.687500 -0.000000
vt 0.750000 -0.000000
vt 0.812500 -0.000000
vt 0.875000 -0.000000
vt 0.937500 -0.000000
vt 1.000000 -0.000000
vt 0.062500 0.166667
vt 0.000000 0.166667
vt 0.000000 -0.000000
vt 0.062500 -0.000000
vt 0.500000 0.166667
vt 0.437500 0.166667
vt 0.437500 -0.000000
vt 0.500000 -0.000000
vt 0.562500 0.166667
vt 0.562500 -0.000000
vt 1.000000 0.166667
vt 0.937500 0.166667
vt 0.937500 -0.000000
vt 1.000000 -0.000000
vn -0.925189 0.192984 0.326776
vn -0.991650 0.128961 0.000000
vn -0.972454 0.233097 0.000000
vn -0.894409 0.239686 0.377601
vn -0.684756 0.249434 0.684756
vn -0.684756 0.249434 0.684756
vn -0.370587 0.249434 0.894677
vn -0.370587 0.249434 0.894677
vn -0.000000 0.249434 0.968392
vn 0.000000 0.249434 0.968392
vn 0.370588 0.249434 0.894677
vn 0.370588 0.249434 0.894677
vn 0.684757 0.249434 0.684756
vn 0.684757 0.249434 0.684756
vn 0.925189 0.192984 0.326776
vn 0.894410 0.239686 0.377601
vn 0.991650 0.128961 -0.000000
vn 0.972454 0.233097 -0.000000
vn 0.925189 0.192984 -0.326777
vn 0.894409 0.239686 -0.377601
vn 0.684756 0.249434 -0.684757
vn 0.684756 0.249434 -0.684757
vn 0.370587 0.249434 -0.894677
vn 0.370587 0.249434 -0.894677
vn -0.000000 0.249434 -0.968392
vn -0.000000 0.249434 -0.968392
vn -0.370588 0.249434 -0.894677
vn -0.370588 0.249434 -0.894677
vn -0.684757 0.249434 -0.684756
vn -0.684757 0.249434 -0.684756
vn -0.925189 0.192984 -0.326776
vn -0.894409 0.239686 -0.377601
vn 0.908068 -0.149723 -0.391147
vn 0.990152 -0.139993 -0.000000
vn 0.990152 -0.139993 -0.000000
vn 0.907850 -0.149756 -0.391639
vn 0.697866 -0.161141 -0.697866
vn 0.697866 -0.161141 -0.697866
vn 0.377682 -0.161141 -0.911806
vn 0.377682 -0.161141 -0.911806
vn -0.000000 -0.161141 -0.986932
vn -0.000000 -0.161141 -0.986932
vn -0.377683 -0.161141 -0.911806
vn -0.377683 -0.161141 -0.911806
vn -0.697866 -0.161141 -0.697866
vn -0.697866 -0.161141 -0.697866
vn -0.908068 -0.149723 -0.391146
vn -0.907851 -0.149756 -0.391638
vn -0.990152 -0.139994 0.000000
vn -0.990152 -0.139994 0.000000
vn -0.908068 -0.149723 0.391147
vn -0.907850 -0.149756 0.391639
vn -0.697866 -0.161141 0.697866
vn -0.697865 -0.161141 0.697866
vn -0.377682 -0.161141 0.911806
vn -0.377682 -0.161141 0.911806
vn 0.000001 -0.161141 0.986932
vn 0.000001 -0.161141 0.986932
vn 0.377683 -0.161141 0.911806
vn 0.377683 -0.161141 0.911806
vn 0.697866 -0.161141 0.697866
vn 0.697866 -0.161141 0.697866
vn 0.908068 -0.149723 0.391146
vn 0.907851 -0.149756 0.391638
vn 0.000000 -1.000000 0.000000
vn 0.000000 -1.000000 -0.000000
vn 0.000000 -1.000000 -0.000000
vn 0.000000 -1.000000 0.000000
vn -0.394621 -0.829788 0.394621
vn -0.811889 -0.349366 -0.467738
vn -0.792029 -0.554474 -0.255440
vn -0.394621 -0.829788 0.394621
vn -0.213567 -0.829788 0.515597
vn -0.213567 -0.829788 0.515597
vn 0.000000 -0.829788 0.558079
vn 0.000000 -0.829788 0.558079
vn 0.213568 -0.829788 0.515597
vn 0.213568 -0.829788 0.515597
vn 0.394621 -0.829788 0.394621
vn 0.394621 -0.829788 0.394621
vn 0.811889 -0.349366 -0.467739
vn 0.792028 -0.554474 -0.255440
vn 0.000000 -1.000000 -0.000000
vn 0.000000 -1.000000 -0.000001
vn 0.000000 -1.000000 -0.000001
vn 0.000000 -1.000000 -0.000000
vn 0.000000 -1.000000 0.000000
vn 0.000000 -1.000000 0.000000
vn 0.394621 -0.829788 -0.394621
vn 0.811890 -0.349366 0.467737
vn 0.792029 -0.554474 0.255439
vn 0.394621 -0.829788 -0.394621
vn 0.213567 -0.829788 -0.515598
vn 0.213567 -0.829788 -0.515597
vn -0.000000 -0.829788 -0.558079
vn -0.000000 -0.829788 -0.558079
vn -0.213568 -0.829788 -0.515597
vn -0.213568 -0.829788 -0.515597
vn -0.394621 -0.829788 -0.394621
vn -0.394621 -0.829788 -0.394621
vn -0.811889 -0.349366 0.467739
vn -0.792028 -0.554474 0.255440
vn 0.000000 -1.000000 -0.000001
vn 0.000000 -1.000000 -0.000001
vn 0.953321 -0.150282 -0.261905
vn 0.987801 -0.155718 -0.000001
vn 0.987801 -0.155718 -0.000001
vn 0.953321 -0.150282 -0.261905
vn -0.978956 0.047226 0.198532
vn -0.998838 0.048186 0.000001
vn -0.749521 -0.083287 -0.656720
vn -0.749521 -0.083287 -0.656720
vn 0.953321 -0.150282 0.261905
vn 0.953321 -0.150282 0.261905
vn -0.749521 -0.083287 0.656721
vn -0.749521 -0.083287 0.656721
vn -0.978956 0.047226 -0.198531
vn -0.987802 -0.155718 0.000001
vn -0.953321 -0.150282 -0.261905
vn -0.953321 -0.150282 -0.261905
vn -0.987801 -0.155718 0.000001
vn 0.749521 -0.083287 -0.656721
vn 0.749521 -0.083287 -0.656721
vn 0.998838 0.048186 -0.000000
vn 0.978956 0.047226 0.198531
vn -0.953321 -0.150282 0.261906
vn -0.953321 -0.150282 0.261906
vn 0.978956 0.047226 -0.198531
vn 0.749522 -0.083287 0.656719
vn 0.749522 -0.083287 0.656719
s 1
f 2/2/1 1/1/2 17/18/3 18/19/4
f 3/3/5 2/2/1 18/19/4 19/20/6
f 4/4/7 3/3/5 19/20/6 20/21/8
f 5/5/9 4/4/7 20/21/8 21/22/10
f 6/6/11 5/5/9 21/22/10 22/23/12
f 7/7/13 6/6/11 22/23/12 23/24/14
f 8/8/15 7/7/13 23/24/14 24/25/16
f 9/9/17 8/8/15 24/25/16 25/26/18
f 10/10/19 9/9/17 25/26/18 26/27/20
f 11/11/21 10/10/19 26/27/20 27/28/22
f 12/12/23 11/11/21 27/28/22 28/29/24
f 13/13/25 12/12/23 28/29/24 29/30/26
f 14/14/27 13/13/25 29/30/26 30/31/28
f 15/15/29 14/14/27 30/31/28 31/32/30
f 16/16/31 15/15/29 31/32/30 32/33/32
f 1/17/2 16/16/31 32/33/32 17/34/3
s 2
f 34/36/33 33/35/34 49/52/35 50/53/36
f 35/37/37 34/36/33 50/53/36 51/54/38
f 36/38/39 35/37/37 51/54/38 52/55/40
f 37/39/41 36/38/39 52/55/40 53/56/42
f 38/40/43 37/39/41 53/56/42 54/57/44
f 39/41/45 38/40/43 54/57/44 55/58/46
f 40/42/47 39/41/45 55/58/46 56/59/48
f 41/43/49 40/42/47 56/59/48 57/60/50
f 42/44/51 41/43/49 57/60/50 58/61/52
f 43/45/53 42/44/51 58/61/52 59/62/54
f 44/46/55 43/45/53 59/62/54 60/63/56
f 45/47/57 44/46/55 60/63/56 61/64/58
f 46/48/59 45/47/57 61/64/58 62/65/60
f 47/49/61 46/48/59 62/65/60 63/66/62
f 48/50/63 47/49/61 63/66/62 64/67/64
f 33/51/34 48/50/63 64/67/64 49/68/35
s 3
f 66/86/65 65/87/66 67/88/67 68/89/68
s 4
f 51/54/69 50/53/70 2/70/71 3/71/72
f 52/55/73 51/54/69 3/71/72 4/72/74
f 53/56/75 52/55/73 4/72/74 5/73/76
f 54/57/77 53/56/75 5/73/76 6/74/78
f 55/58/79 54/57/77 6/74/78 7/75/80
f 56/59/81 55/58/79 7/75/80 8/76/82
s 5
f 72/90/83 71/91/84 73/92/85 74/93/86
f 75/94/87 72/90/83 74/93/86 76/95/88
s 6
f 59/62/89 58/61/90 10/78/91 11/79/92
f 60/63/93 59/62/89 11/79/92 12/80/94
f 61/64/95 60/63/93 12/80/94 13/81/96
f 62/65/97 61/64/95 13/81/96 14/82/98
f 63/66/99 62/65/97 14/82/98 15/83/100
f 64/67/101 63/66/99 15/83/100 16/84/102
s 3
f 65/96/66 69/97/103 70/98/104 67/99/67
s 7
f 50/53/105 49/52/106 65/87/107 66/86/108
s 1
f 1/69/2 2/70/1 68/89/109 67/88/110
s 4
f 2/70/71 50/53/70 66/86/111 68/89/112
s 7
f 49/60/106 64/59/113 69/91/114 65/90/107
s 6
f 64/59/101 16/76/102 70/92/115 69/91/116
s 1
f 16/76/31 1/77/2 67/93/110 70/92/117
s 8
f 57/61/118 56/60/119 71/90/120 72/94/121
s 4
f 56/77/81 8/78/82 73/95/122 71/93/123
s 1
f 8/78/15 9/61/17 74/94/124 73/95/125
s 8
f 58/68/126 57/67/118 72/97/121 75/96/127
s 1
f 9/67/17 10/84/19 76/98/128 74/97/124
s 6
f 10/84/91 58/85/90 75/99/129 76/98/130
