# This file uses centimeters as units for non-parametric coordinates.

v 2.400000 -2.500000 -0.000000
v 2.217311 -2.500000 -0.918440
v 1.697056 -2.500000 -1.697056
v 0.918440 -2.500000 -2.217311
v -0.000000 -2.500000 -2.400000
v -0.918441 -2.500000 -2.217311
v -1.697057 -2.500000 -1.697056
v -2.217311 -2.500000 -0.918440
v -2.400000 -2.500000 0.000001
v -2.217310 -2.500000 0.918441
v -1.697056 -2.500000 1.697057
v -0.918440 -2.500000 2.217311
v 0.000001 -2.500000 2.400000
v 0.918441 -2.500000 2.217310
v 1.697057 -2.500000 1.697055
v 2.217311 -2.500000 0.918439
v 0.232470 2.500000 -0.000000
v 0.214774 2.500000 -0.088963
v 0.164382 2.500000 -0.164382
v 0.088963 2.500000 -0.214774
v 0.000000 2.500000 -0.232470
v -0.088962 2.500000 -0.214774
v -0.164382 2.500000 -0.164382
v -0.214773 2.500000 -0.088963
v -0.232469 2.500000 -0.000000
v -0.214773 2.500000 0.088962
v -0.164382 2.500000 0.164382
v -0.088962 2.500000 0.214773
v 0.000000 2.500000 0.232469
v 0.088963 2.500000 0.214773
v 0.164382 2.500000 0.164382
v 0.214774 2.500000 0.088962
vt 0.812156 0.000000
vt 0.749731 0.000000
vt 0.749731 1.000000
vt 0.812156 1.000000
vt 0.874581 0.000000
vt 0.874581 1.000000
vt 0.937005 0.000000
vt 0.000634 0.000000
vt 0.000634 1.000000
vt 0.063058 0.000000
vt 0.063058 1.000000
vt 0.125483 0.000000
vt 0.125483 1.000000
vt 0.187908 0.000000
vt 0.187908 1.000000
vt 0.250333 0.000000
vt 0.250333 1.000000
vt 0.312758 0.000000
vt 0.312758 1.000000
vt 0.375182 0.000000
vt 0.375182 1.000000
vt 0.437607 0.000000
vt 0.437607 1.000000
vt 0.500032 0.000000
vt 0.500032 1.000000
vt 0.562457 0.000000
vt 0.562457 1.000000
vt 0.624882 0.000000
vt 0.624882 1.000000
vt 0.687306 0.000000
vt 0.687306 1.000000
vt 0.999430 0.000000
vt 0.937005 1.000000
vt 0.999430 1.000000
vn -0.847658 -0.397741 0.351111
vn -0.917498 -0.397741 0.000000
vn -0.917498 -0.397741 0.000000
vn -0.847658 -0.397741 0.351111
vn -0.648769 -0.397741 0.648769
vn -0.648769 -0.397741 0.648769
vn -0.351111 -0.397741 0.847658
vn -0.351110 -0.397741 0.847658
vn 0.000000 -0.397741 0.917498
vn 0.000000 -0.397741 0.917498
vn 0.351111 -0.397741 0.847658
vn 0.351111 -0.397741 0.847658
vn 0.648769 -0.397741 0.648769
vn 0.648769 -0.397741 0.648769
vn 0.847658 -0.397741 0.351111
vn 0.847658 -0.397741 0.351110
vn 0.917498 -0.397741 -0.000000
vn 0.917498 -0.397741 -0.000000
vn 0.847658 -0.397741 -0.351111
vn 0.847658 -0.397741 -0.351111
vn 0.648769 -0.397741 -0.648769
vn 0.648769 -0.397741 -0.648769
vn 0.351111 -0.397741 -0.847658
vn 0.351110 -0.397741 -0.847658
vn -0.000000 -0.397741 -0.917498
vn -0.000000 -0.397741 -0.917498
vn -0.351111 -0.397741 -0.847658
vn -0.351111 -0.397741 -0.847658
vn -0.648769 -0.397741 -0.648769
vn -0.648769 -0.397741 -0.648769
vn -0.847658 -0.397741 -0.351111
vn -0.847658 -0.397741 -0.351110
f 2/1/1 1/2/2 17/3/3 18/4/4
f 3/5/5 2/1/1 18/4/4 19/6/6
f 4/7/7 3/5/5 19/6/6 20/33/8
f 5/32/9 4/7/7 20/33/8 21/34/10
f 6/10/11 5/8/9 21/9/10 22/11/12
f 7/12/13 6/10/11 22/11/12 23/13/14
f 8/14/15 7/12/13 23/13/14 24/15/16
f 9/16/17 8/14/15 24/15/16 25/17/18
f 10/18/19 9/16/17 25/17/18 26/19/20
f 11/20/21 10/18/19 26/19/20 27/21/22
f 12/22/23 11/20/21 27/21/22 28/23/24
f 13/24/25 12/22/23 28/23/24 29/25/26
f 14/26/27 13/24/25 29/25/26 30/27/28
f 15/28/29 14/26/27 30/27/28 31/29/30
f 16/30/31 15/28/29 31/29/30 32/31/32
f 1/2/2 16/30/31 32/31/32 17/3/3
