# This file uses centimeters as units for non-parametric coordinates.

v 2.575253 -1.299779 13.431654
v 3.575253 -1.299779 13.431654
v 2.575253 12.638060 13.431654
v 3.575253 12.638060 13.431654
v 2.575253 12.638060 -13.431654
v 3.575253 12.638060 -13.431654
v 2.575253 -1.299779 -13.431654
v 3.575253 -1.299779 -13.431654
vt 0.375000 0.000000
vt 0.625000 0.000000
vt 0.375000 0.250000
vt 0.625000 0.250000
vt 0.375000 0.500000
vt 0.625000 0.500000
vt 0.375000 0.750000
vt 0.625000 0.750000
vt 0.375000 1.000000
vt 0.625000 1.000000
vt 0.875000 0.000000
vt 0.875000 0.250000
vt 0.125000 0.000000
vt 0.125000 0.250000
vn 0.000000 0.000000 1.000000
vn 0.000000 0.000000 1.000000
vn 0.000000 0.000000 1.000000
vn 0.000000 0.000000 1.000000
vn 0.000000 1.000000 0.000000
vn 0.000000 1.000000 0.000000
vn 0.000000 1.000000 0.000000
vn 0.000000 1.000000 0.000000
vn 0.000000 0.000000 -1.000000
vn 0.000000 0.000000 -1.000000
vn 0.000000 0.000000 -1.000000
vn 0.000000 0.000000 -1.000000
vn 0.000000 -1.000000 0.000000
vn 0.000000 -1.000000 0.000000
vn 0.000000 -1.000000 0.000000
vn 0.000000 -1.000000 0.000000
vn 1.000000 0.000000 0.000000
vn 1.000000 0.000000 0.000000
vn 1.000000 0.000000 0.000000
vn 1.000000 0.000000 0.000000
vn -1.000000 0.000000 0.000000
vn -1.000000 0.000000 0.000000
vn -1.000000 0.000000 0.000000
vn -1.000000 0.000000 0.000000
s off
g Gate_inside
f 1/1/1 2/2/2 4/4/3 3/3/4
f 3/3/5 4/4/6 6/6/7 5/5/8
f 5/5/9 6/6/10 8/8/11 7/7/12
f 7/7/13 8/8/14 2/10/15 1/9/16
f 2/2/17 8/11/18 6/12/19 4/4/20
f 7/13/21 1/1/22 3/3/23 5/14/24
v -3.022738 -1.515828 12.452766
v 2.714346 -1.515828 12.452766
v -3.022738 11.535746 12.452766
v 2.714346 11.535746 12.452766
v -3.022738 11.535746 -12.452766
v 2.714346 11.535746 -12.452766
v -3.022738 -1.515828 -12.452766
v 2.714346 -1.515828 -12.452766
v -3.022738 -4.181478 15.118417
v 2.714346 -4.181478 15.118417
v 2.714346 14.201396 15.118417
v -3.022738 14.201396 15.118417
v 2.714346 14.201396 -15.118417
v -3.022738 14.201396 -15.118417
v 2.714346 -4.181478 -15.118417
v -3.022738 -4.181478 -15.118417
v -3.022738 -0.606326 -12.452766
v -3.022738 -0.606326 12.452766
v 2.714346 -0.606326 12.452766
v 2.714346 -0.606326 -12.452766
v -22.281275 -1.515828 -12.452766
v -22.281275 -1.515828 12.452766
v -22.281275 -0.606326 12.452766
v -22.281275 -0.606326 -12.452766
v -3.696765 0.016233 -9.911796
v -3.696765 0.016233 9.911796
v 2.714346 0.016233 9.911796
v 2.714346 0.016233 -9.911796
v -20.316435 0.016233 -9.911796
v -20.316435 0.016233 9.911796
v -3.406893 -0.537593 12.679888
v -3.406893 10.557511 12.679888
v -3.406893 -2.803655 14.945950
v -3.406893 12.823573 14.945950
v -3.406893 10.557511 -12.679888
v -3.406893 -0.537593 -12.679888
v -3.406893 12.823573 -14.945950
v -3.406893 -2.803655 -14.945950
v -3.840219 11.843964 9.798775
v -3.840219 11.843964 -9.798775
v -3.840219 13.941498 11.896311
v -3.840219 13.941498 -11.896311
v -7.692035 11.843962 9.798775
v -7.692035 11.843962 -9.798775
v -7.692035 13.941498 11.896311
v -7.692035 13.941498 -11.896311
v 0.470292 1.530897 19.352890
v 2.714346 1.530897 19.352890
v 2.714346 8.489021 19.352890
v 0.470292 8.489021 19.352890
v 0.470292 8.489021 -19.352890
v 2.714346 8.489021 -19.352890
v 2.714346 1.530897 -19.352890
v 0.470292 1.530897 -19.352890
v 0.035917 16.789822 7.294217
v 2.714346 16.789822 7.294217
v 2.714346 16.789822 -7.294217
v 0.035917 16.789822 -7.294217
v 0.035917 -6.769904 -7.294217
v 2.714346 -6.769904 -7.294217
v 2.714346 -6.769904 7.294217
v 0.035917 -6.769904 7.294217
vt 0.375000 0.000000
vt 0.625000 0.000000
vt 0.375000 0.250000
vt 0.625000 0.250000
vt 0.375000 0.500000
vt 0.625000 0.500000
vt 0.375000 0.750000
vt 0.625000 0.750000
vt 0.375000 1.000000
vt 0.625000 1.000000
vt 0.375000 0.000000
vt 0.625000 0.000000
vt 0.625000 0.250000
vt 0.375000 0.250000
vt 0.625000 0.500000
vt 0.375000 0.500000
vt 0.625000 0.750000
vt 0.375000 0.750000
vt 0.625000 1.000000
vt 0.375000 1.000000
vt 0.625000 0.000000
vt 0.625000 0.250000
vt 0.375000 0.250000
vt 0.375000 0.000000
vt 0.625000 0.500000
vt 0.375000 0.500000
vt 0.625000 0.750000
vt 0.375000 0.750000
vt 0.625000 1.000000
vt 0.375000 1.000000
vt 0.375000 0.750000
vt 0.375000 1.000000
vt 0.625000 1.000000
vt 0.625000 0.750000
vt 0.375000 0.750000
vt 0.375000 1.000000
vt 0.375000 1.000000
vt 0.375000 0.750000
vt 0.375000 1.000000
vt 0.625000 1.000000
vt 0.625000 0.750000
vt 0.375000 0.750000
vt 0.375000 0.750000
vt 0.375000 1.000000
vt 0.375000 0.250000
vt 0.375000 0.000000
vt 0.375000 0.000000
vt 0.375000 0.250000
vt 0.375000 0.750000
vt 0.375000 0.500000
vt 0.375000 0.500000
vt 0.375000 0.750000
vt 0.375000 0.500000
vt 0.375000 0.250000
vt 0.375000 0.250000
vt 0.375000 0.500000
vt 0.375000 0.500000
vt 0.375000 0.250000
vt 0.375000 0.250000
vt 0.375000 0.500000
vt 0.375000 0.000000
vt 0.625000 0.000000
vt 0.625000 0.250000
vt 0.375000 0.250000
vt 0.375000 0.500000
vt 0.625000 0.500000
vt 0.625000 0.750000
vt 0.375000 0.750000
vt 0.375000 0.250000
vt 0.625000 0.250000
vt 0.625000 0.500000
vt 0.375000 0.500000
vt 0.375000 0.750000
vt 0.625000 0.750000
vt 0.625000 1.000000
vt 0.375000 1.000000
vn 0.000000 0.000000 1.000000
vn 0.000000 0.000000 1.000000
vn 0.000000 0.000000 1.000000
vn 0.000000 0.000000 1.000000
vn 0.000000 0.986162 0.165785
vn 0.000000 0.988750 0.149576
vn 0.000000 0.988750 -0.149576
vn 0.000000 0.986162 -0.165785
vn 0.000000 0.000000 -1.000000
vn 0.000000 0.000000 -1.000000
vn 0.000000 0.000000 -1.000000
vn 0.000000 0.000000 -1.000000
vn 0.000000 -0.986162 -0.165785
vn 0.000000 -0.988750 -0.149576
vn 0.000000 -0.988750 0.149576
vn 0.000000 -0.986162 0.165785
vn 0.000000 0.000000 -1.000000
vn 0.000000 0.000000 -1.000000
vn 0.000000 0.000000 -1.000000
vn 0.000000 0.000000 -1.000000
vn -0.009473 -0.999955 0.000000
vn -0.009473 -0.999955 0.000000
vn 0.000000 -1.000000 0.000000
vn 0.000000 -1.000000 0.000000
vn 0.000000 0.000000 1.000000
vn 0.000000 0.000000 1.000000
vn 0.000000 0.000000 1.000000
vn 0.000000 0.000000 1.000000
vn 0.000000 0.999523 -0.030872
vn 0.000000 0.999523 0.030872
vn 0.000000 0.999648 0.026523
vn 0.000000 0.999648 -0.026523
vn 1.000000 -0.000000 0.000000
vn 1.000000 0.000000 0.000000
vn 1.000000 0.000000 0.000000
vn 1.000000 -0.000000 0.000000
vn -0.999820 0.013406 -0.013406
vn -0.999820 -0.013406 -0.013406
vn -0.994514 -0.073968 -0.073968
vn -0.994514 0.073968 -0.073968
vn 1.000000 0.000000 0.000000
vn 1.000000 0.000000 0.000000
vn -1.000000 0.000000 0.000000
vn -1.000000 0.000000 0.000000
vn -1.000000 0.000000 0.000000
vn -1.000000 0.000000 0.000000
vn 1.000000 -0.000000 0.000000
vn 1.000000 -0.000000 0.000000
vn -0.999820 -0.013406 0.013406
vn -0.999820 0.013406 0.013406
vn -0.994514 0.073968 0.073968
vn -0.994514 -0.073968 0.073968
vn -0.999878 -0.011022 -0.011022
vn -0.999878 -0.011022 0.011022
vn -0.999875 -0.011180 0.011180
vn -0.999875 -0.011180 -0.011180
vn -1.000000 0.000000 0.000000
vn -1.000000 0.000000 0.000000
vn -1.000000 0.000000 0.000000
vn -1.000000 0.000000 0.000000
vn 0.000000 0.000000 1.000000
vn 0.000000 0.000000 1.000000
vn 0.000000 0.000000 1.000000
vn 0.000000 0.000000 1.000000
vn 1.000000 0.000000 0.000000
vn 1.000000 0.000000 0.000000
vn 0.000000 0.000000 -1.000000
vn 0.000000 0.000000 -1.000000
vn 0.000000 0.000000 -1.000000
vn 0.000000 0.000000 -1.000000
vn 0.000000 -1.000000 0.000000
vn 0.000000 -1.000000 0.000000
vn 0.000000 -1.000000 0.000000
vn 0.000000 -1.000000 0.000000
vn 0.000000 0.000000 1.000000
vn 0.000000 0.000000 1.000000
vn -0.047062 0.998314 -0.033988
vn -0.047062 0.998314 0.033988
vn 0.000000 0.000000 -1.000000
vn 0.000000 0.000000 -1.000000
vn 0.000000 0.971273 0.237970
vn 0.000000 0.971273 0.237970
vn 1.000000 0.000000 0.000000
vn 1.000000 0.000000 0.000000
vn 1.000000 0.000000 0.000000
vn 1.000000 0.000000 0.000000
vn 0.000000 0.971273 -0.237970
vn 0.000000 0.971273 -0.237970
vn -0.129032 0.981604 -0.140726
vn -0.129032 0.981604 0.140725
vn -0.508933 0.000000 -0.860806
vn -0.508933 0.000000 -0.860806
vn -0.508933 0.000000 -0.860806
vn -0.508933 0.000000 -0.860806
vn -0.760439 0.000000 0.649410
vn -0.760439 0.000000 0.649410
vn -0.409566 0.000000 0.912280
vn -0.409566 0.000000 0.912280
vn -0.911677 0.290556 -0.290556
vn -0.911677 0.290556 -0.290556
vn -0.508933 0.000000 0.860806
vn -0.508933 0.000000 0.860806
vn -0.508933 0.000000 0.860806
vn -0.508933 0.000000 0.860806
vn -0.911677 0.290556 0.290556
vn -0.911677 0.290556 0.290556
vn -0.760439 0.000000 -0.649410
vn -0.760439 0.000000 -0.649410
vn -0.409566 0.000000 -0.912280
vn -0.409566 0.000000 -0.912280
vn -0.113223 -0.993570 0.000000
vn -0.113223 -0.993570 0.000000
vn -0.931566 -0.257084 0.257084
vn -0.931566 -0.257084 0.257084
vn -0.931566 -0.257084 0.257084
vn -0.931566 -0.257084 0.257084
vn -0.608485 0.793566 0.000000
vn -0.608485 0.793566 0.000000
vn -0.096996 0.995285 0.000000
vn -0.096996 0.995285 0.000000
vn -0.931566 -0.257084 -0.257084
vn -0.931566 -0.257084 -0.257084
vn -0.931566 -0.257084 -0.257084
vn -0.931566 -0.257084 -0.257084
vn 0.000000 -1.000000 0.000000
vn 0.000000 -1.000000 0.000000
vn -0.000000 -0.707107 0.707107
vn -0.000000 -0.707107 0.707107
vn -0.000000 -0.707107 0.707107
vn -0.000000 -0.707107 0.707107
vn 0.000000 1.000000 0.000000
vn 0.000000 1.000000 0.000000
vn 0.000000 -0.707107 -0.707107
vn 0.000000 -0.707107 -0.707107
vn 0.000000 -0.707107 -0.707107
vn 0.000000 -0.707107 -0.707107
vn 0.000000 -0.595508 0.803350
vn 0.000000 -0.595508 0.803350
vn 0.000000 -0.595508 0.803350
vn 0.000000 -0.595508 0.803350
vn 1.000000 0.000000 0.000000
vn 1.000000 0.000000 0.000000
vn 0.000000 0.595508 0.803350
vn 0.000000 0.595508 0.803350
vn 0.000000 0.595508 0.803350
vn 0.000000 0.595508 0.803350
vn -0.771410 0.000000 0.636339
vn -0.771410 0.000000 0.636339
vn 0.000000 0.595508 -0.803350
vn 0.000000 0.595508 -0.803350
vn 0.000000 0.595508 -0.803350
vn 0.000000 0.595508 -0.803350
vn 1.000000 0.000000 0.000000
vn 1.000000 0.000000 0.000000
vn 0.000000 -0.595508 -0.803350
vn 0.000000 -0.595508 -0.803350
vn 0.000000 -0.595508 -0.803350
vn 0.000000 -0.595508 -0.803350
vn -0.771410 0.000000 -0.636339
vn -0.771410 0.000000 -0.636339
vn 0.000000 0.949396 0.314082
vn 0.000000 0.949396 0.314082
vn 1.000000 0.000000 0.000000
vn 1.000000 0.000000 0.000000
vn 0.000000 0.949396 -0.314082
vn 0.000000 0.949396 -0.314082
vn -0.645990 0.763345 0.000000
vn -0.645990 0.763345 0.000000
vn 0.000000 -0.949396 -0.314082
vn 0.000000 -0.949396 -0.314082
vn 1.000000 -0.000000 0.000000
vn 1.000000 -0.000000 0.000000
vn 0.000000 -0.949396 0.314082
vn 0.000000 -0.949396 0.314082
vn -0.645990 -0.763345 0.000000
vn -0.645990 -0.763345 0.000000
vn -0.645990 -0.763345 0.000000
vn -0.645990 -0.763345 0.000000
s off
g Gate
f 55/75/25 56/76/26 57/77/27 58/78/28
s 1
f 63/83/29 64/84/30 65/85/31 66/86/32
s off
f 59/79/33 60/80/34 61/81/35 62/82/36
s 2
f 67/87/37 68/88/38 69/89/39 70/90/40
s off
f 9/25/41 11/28/42 12/27/43 10/26/44
s 3
f 11/28/45 13/30/46 14/29/47 12/27/48
s off
f 13/30/49 15/32/50 16/31/51 14/29/52
s 4
f 33/56/53 34/53/54 35/54/55 36/55/56
s 5
f 10/16/57 12/18/58 19/36/59 18/35/60
s 6
f 40/59/61 39/60/62 41/61/63 42/62/64
s 5
f 12/18/58 14/20/65 21/39/66 19/36/59
s off
f 52/71/67 51/72/68 53/73/69 54/74/70
s 5
f 14/20/65 16/22/71 23/41/72 21/39/66
s 6
f 44/63/73 43/64/74 45/65/75 46/66/76
s 5
f 16/22/71 10/24/57 18/43/60 23/41/72
s 6
f 9/23/77 15/21/78 24/42/79 17/44/80
s off
f 29/49/81 30/50/82 31/51/83 32/52/84
s 8
f 9/34/85 10/33/86 27/47/87 26/46/88
s 5
f 10/33/57 16/31/71 28/48/89 27/47/90
s 9
f 16/31/91 15/32/92 25/45/93 28/48/94
s off
f 15/32/95 9/34/96 30/50/97 29/49/98
s 8
f 9/34/85 26/46/88 31/51/99 30/50/100
s 4
f 34/53/54 33/56/53 37/57/101 38/58/102
s 9
f 25/45/93 15/32/92 29/49/103 32/52/104
s 4
f 26/46/105 27/47/106 35/54/55 34/53/54
s off
f 27/47/107 28/48/108 36/55/109 35/54/110
s 4
f 28/48/111 25/45/112 33/56/53 36/55/56
f 25/45/112 32/52/113 37/57/101 33/56/53
f 32/52/113 31/51/114 38/58/102 37/57/101
f 31/51/114 26/46/105 34/53/54 38/58/102
s off
f 11/17/115 9/15/116 39/60/117 40/59/118
s 6
f 9/15/77 17/38/80 41/61/63 39/60/62
s 10
f 17/38/119 20/37/120 42/62/121 41/61/122
s 6
f 20/37/123 11/17/124 40/59/61 42/62/64
s off
f 15/21/125 13/19/126 43/64/127 44/63/128
s 6
f 13/19/129 22/40/130 45/65/75 43/64/74
s 11
f 22/40/131 24/42/132 46/66/133 45/65/134
s 6
f 24/42/79 15/21/78 44/63/73 46/66/76
s 3
f 13/19/46 11/17/45 47/68/135 48/67/136
s off
f 11/17/137 20/37/138 49/69/139 47/68/140
s 12
f 20/37/141 22/40/142 50/70/143 49/69/144
s off
f 22/40/145 13/19/146 48/67/147 50/70/148
s 3
f 48/67/136 47/68/135 51/72/149 52/71/150
s off
f 47/68/151 49/69/152 53/73/153 51/72/154
s 12
f 49/69/144 50/70/143 54/74/155 53/73/156
s off
f 50/70/157 48/67/158 52/71/159 54/74/160
f 17/38/161 18/35/162 56/76/163 55/75/164
s 5
f 18/35/60 19/36/59 57/77/165 56/76/166
s off
f 19/36/167 20/37/168 58/78/169 57/77/170
s 10
f 20/37/120 17/38/119 55/75/171 58/78/172
s off
f 22/40/173 21/39/174 60/80/175 59/79/176
s 5
f 21/39/66 23/41/72 61/81/177 60/80/178
s off
f 23/41/179 24/42/180 62/82/181 61/81/182
s 11
f 24/42/132 22/40/131 59/79/183 62/82/184
s 1
f 20/37/185 19/36/186 64/84/30 63/83/29
s 5
f 19/36/59 21/39/66 65/85/187 64/84/188
s 1
f 21/39/189 22/40/190 66/86/32 65/85/31
s 12
f 22/40/142 20/37/141 63/83/191 66/86/192
s 2
f 24/42/193 23/41/194 68/88/38 67/87/37
s 5
f 23/41/72 18/43/60 69/89/195 68/88/196
s 2
f 18/43/197 17/44/198 70/90/40 69/89/39
s off
f 17/44/199 24/42/200 67/87/201 70/90/202
