# This file uses centimeters as units for non-parametric coordinates.

v 0.923880 -2.000000 -0.382683
v 0.707107 -2.000000 -0.707106
v 0.382684 -2.000000 -0.923879
v 0.000001 -2.000000 -1.000000
v -0.382683 -2.000000 -0.923880
v -0.707106 -2.000000 -0.707107
v -0.923879 -2.000000 -0.382684
v -1.000000 -2.000000 -0.000000
v -0.923880 -2.000000 0.382683
v -0.707107 -2.000000 0.707107
v -0.382684 -2.000000 0.923879
v -0.000000 -2.000000 1.000000
v 0.382683 -2.000000 0.923880
v 0.707107 -2.000000 0.707107
v 0.923880 -2.000000 0.382683
v 1.000000 -2.000000 0.000000
v 0.923880 2.000000 -0.382683
v 0.707107 2.000000 -0.707106
v 0.382684 2.000000 -0.923879
v 0.000001 2.000000 -1.000000
v -0.382683 2.000000 -0.923880
v -0.707106 2.000000 -0.707107
v -0.923879 2.000000 -0.382684
v -1.000000 2.000000 -0.000000
v -0.923880 2.000000 0.382683
v -0.707107 2.000000 0.707107
v -0.382684 2.000000 0.923879
v -0.000000 2.000000 1.000000
v 0.382683 2.000000 0.923880
v 0.707107 2.000000 0.707107
v 0.923880 2.000000 0.382683
v 1.000000 2.000000 0.000000
vt 0.375000 0.312500
vt 0.390625 0.312500
vt 0.406250 0.312500
vt 0.421875 0.312500
vt 0.437500 0.312500
vt 0.453125 0.312500
vt 0.468750 0.312500
vt 0.484375 0.312500
vt 0.500000 0.312500
vt 0.515625 0.312500
vt 0.531250 0.312500
vt 0.546875 0.312500
vt 0.562500 0.312500
vt 0.578125 0.312500
vt 0.593750 0.312500
vt 0.609375 0.312500
vt 0.625000 0.312500
vt 0.375000 0.688440
vt 0.390625 0.688440
vt 0.406250 0.688440
vt 0.421875 0.688440
vt 0.437500 0.688440
vt 0.453125 0.688440
vt 0.468750 0.688440
vt 0.484375 0.688440
vt 0.500000 0.688440
vt 0.515625 0.688440
vt 0.531250 0.688440
vt 0.546875 0.688440
vt 0.562500 0.688440
vt 0.578125 0.688440
vt 0.593750 0.688440
vt 0.609375 0.688440
vt 0.625000 0.688440
vn -0.923880 0.000000 0.382683
vn -0.923880 0.000000 0.382683
vn -0.707107 0.000000 0.707107
vn -0.707107 0.000000 0.707107
vn -0.382684 0.000000 0.923879
vn -0.382684 0.000000 0.923879
vn -0.000001 0.000000 1.000000
vn -0.000001 0.000000 1.000000
vn 0.382683 0.000000 0.923880
vn 0.382683 0.000000 0.923880
vn 0.707106 0.000000 0.707107
vn 0.707106 0.000000 0.707107
vn 0.923879 0.000000 0.382684
vn 0.923879 0.000000 0.382684
vn 1.000000 0.000000 0.000000
vn 1.000000 0.000000 0.000000
vn 0.923880 0.000000 -0.382683
vn 0.923880 0.000000 -0.382683
vn 0.707107 0.000000 -0.707107
vn 0.707107 0.000000 -0.707107
vn 0.382684 0.000000 -0.923879
vn 0.382684 0.000000 -0.923879
vn 0.000000 0.000000 -1.000000
vn 0.000000 0.000000 -1.000000
vn -0.382683 0.000000 -0.923880
vn -0.382683 0.000000 -0.923880
vn -0.707107 0.000000 -0.707107
vn -0.707107 0.000000 -0.707107
vn -0.923880 0.000000 -0.382684
vn -0.923880 0.000000 -0.382684
vn -1.000000 0.000000 -0.000000
vn -1.000000 0.000000 -0.000000
f 1/1/1 17/18/2 18/19/3 2/2/4
f 2/2/4 18/19/3 19/20/5 3/3/6
f 3/3/6 19/20/5 20/21/7 4/4/8
f 4/4/8 20/21/7 21/22/9 5/5/10
f 5/5/10 21/22/9 22/23/11 6/6/12
f 6/6/12 22/23/11 23/24/13 7/7/14
f 7/7/14 23/24/13 24/25/15 8/8/16
f 8/8/16 24/25/15 25/26/17 9/9/18
f 9/9/18 25/26/17 26/27/19 10/10/20
f 10/10/20 26/27/19 27/28/21 11/11/22
f 11/11/22 27/28/21 28/29/23 12/12/24
f 12/12/24 28/29/23 29/30/25 13/13/26
f 13/13/26 29/30/25 30/31/27 14/14/28
f 14/14/28 30/31/27 31/32/29 15/15/30
f 15/15/30 31/32/29 32/33/31 16/16/32
f 16/16/32 32/33/31 17/34/2 1/17/1
