# This file uses centimeters as units for non-parametric coordinates.

mtllib ship_sketch_floor.mtl
g default
v -0.557105 0.052233 -1.047008
v -0.557105 0.052233 0.705874
v -0.297028 0.052233 0.705677
v -0.297028 0.052233 -1.165087
v 0.279488 0.052233 -1.165084
v 0.279488 0.052233 0.705680
v 0.556324 0.052233 0.705881
v 0.556324 0.052233 -1.047002
v -0.000381 0.052233 0.705480
v -0.000381 0.052233 -1.165284
v -0.557105 0.063406 -1.047008
v -0.557105 0.063406 0.705874
v -0.297028 0.063406 0.705677
v -0.297028 0.063406 -1.165087
v 0.279488 0.063406 -1.165084
v 0.279488 0.063406 0.705680
v 0.556324 0.063406 0.705881
v 0.556324 0.063406 -1.047002
v -0.000381 0.063406 0.705480
v -0.000381 0.063406 -1.165284
vt 0.437500 0.500000
vt 0.437500 0.250000
vt 0.467279 0.250000
vt 0.467279 0.500000
vt 0.530711 0.250000
vt 0.562500 0.250000
vt 0.562500 0.500000
vt 0.530711 0.500000
vt 0.562500 0.250000
vt 0.562500 0.250000
vt 0.562500 0.375000
vt 0.562500 0.500000
vt 0.562500 1.000000
vt 0.562500 0.750000
vt 0.437500 0.500000
vt 0.437500 0.250000
vt 0.467279 0.250000
vt 0.467279 0.500000
vt 0.530711 0.250000
vt 0.562500 0.250000
vt 0.562500 0.500000
vt 0.530711 0.500000
vt 0.562500 0.250000
vt 0.562500 0.250000
vt 0.562500 0.375000
vt 0.562500 0.500000
vt 0.562500 1.000000
vt 0.562500 0.750000
vt 0.500000 0.250000
vt 0.500000 0.500000
vn 0.000000 1.000000 0.000000
vn 0.000000 1.000000 0.000000
vn 0.000000 1.000000 0.000000
vn 0.000000 1.000000 0.000000
vn 0.000000 1.000000 0.000000
vn 0.000000 1.000000 0.000000
vn 0.000000 1.000000 0.000000
vn 0.000000 1.000000 0.000000
vn 0.000000 1.000000 0.000000
vn 0.000000 1.000000 0.000000
vn -1.000000 0.000000 0.000000
vn -1.000000 0.000000 0.000000
vn -1.000000 0.000000 0.000000
vn -1.000000 0.000000 0.000000
vn 0.000758 0.000000 1.000000
vn 0.000708 0.000000 1.000000
vn 0.000708 0.000000 1.000000
vn 0.000758 0.000000 1.000000
vn -0.207812 0.000000 -0.978169
vn -0.413401 0.000000 -0.910549
vn -0.413401 0.000000 -0.910549
vn -0.207812 0.000000 -0.978169
vn -0.000720 0.000000 1.000000
vn -0.000724 0.000000 1.000000
vn -0.000724 0.000000 1.000000
vn -0.000720 0.000000 1.000000
vn 1.000000 0.000000 -0.000000
vn 1.000000 0.000000 -0.000000
vn 1.000000 0.000000 -0.000000
vn 1.000000 0.000000 -0.000000
vn 0.392341 0.000000 -0.919820
vn 0.207828 0.000000 -0.978165
vn 0.207828 0.000000 -0.978165
vn 0.392341 0.000000 -0.919820
vn -0.000005 0.000000 1.000000
vn -0.000005 0.000000 1.000000
vn 0.000005 0.000000 -1.000000
vn 0.000005 0.000000 -1.000000
s 1
g pCube1
usemtl initialShadingGroup
f 11/15/1 12/16/2 13/17/3 14/18/4
f 15/22/5 16/19/6 17/20/7 18/21/8
f 20/30/9 19/29/10 16/19/6 15/22/5
f 14/18/4 13/17/3 19/29/10 20/30/9
s off
f 1/1/11 2/2/12 12/16/13 11/15/14
s 3
f 2/2/15 3/3/16 13/17/17 12/16/18
s 4
f 4/4/19 1/1/20 11/15/21 14/18/22
s 3
f 6/5/23 7/6/24 17/20/25 16/19/26
s off
f 7/6/27 8/7/28 18/21/29 17/20/30
s 4
f 8/7/31 5/8/32 15/22/33 18/21/34
s 3
f 9/9/35 6/10/23 16/24/26 19/23/36
s 4
f 5/10/32 10/11/37 20/25/38 15/24/33
s 3
f 3/11/16 9/12/35 19/26/36 13/25/17
s 4
f 10/13/37 4/14/19 14/28/22 20/27/38
