# This file uses centimeters as units for non-parametric coordinates.

mtllib steering.mtl
g default
v 0.475529 -0.050000 -0.154509
v 0.404509 -0.050000 -0.293893
v 0.293893 -0.050000 -0.404509
v 0.154509 -0.050000 -0.475529
v 0.000000 -0.050000 -0.500000
v -0.154509 -0.050000 -0.475528
v -0.293893 -0.050000 -0.404509
v -0.404509 -0.050000 -0.293893
v -0.475528 -0.050000 -0.154509
v -0.500000 -0.050000 0.000000
v 0.500000 -0.050000 0.000000
v 0.475529 0.050000 -0.154509
v 0.404509 0.050000 -0.293893
v 0.293893 0.050000 -0.404509
v 0.154509 0.050000 -0.475529
v 0.000000 0.050000 -0.500000
v -0.154509 0.050000 -0.475528
v -0.293893 0.050000 -0.404509
v -0.404509 0.050000 -0.293893
v -0.475528 0.050000 -0.154509
v -0.500000 0.050000 0.000000
v 0.500000 0.050000 0.000000
v 0.000000 -0.050000 0.000000
v 0.000000 0.050000 0.000000
vt 0.648603 0.107966
vt 0.626409 0.064408
vt 0.591842 0.029841
vt 0.548284 0.007647
vt 0.500000 -0.000000
vt 0.451716 0.007647
vt 0.408159 0.029841
vt 0.373591 0.064409
vt 0.351397 0.107966
vt 0.343750 0.156250
vt 0.656250 0.156250
vt 0.375000 0.312500
vt 0.387500 0.312500
vt 0.400000 0.312500
vt 0.412500 0.312500
vt 0.425000 0.312500
vt 0.437500 0.312500
vt 0.450000 0.312500
vt 0.462500 0.312500
vt 0.475000 0.312500
vt 0.487500 0.312500
vt 0.612500 0.312500
vt 0.625000 0.312500
vt 0.375000 0.688440
vt 0.387500 0.688440
vt 0.400000 0.688440
vt 0.412500 0.688440
vt 0.425000 0.688440
vt 0.437500 0.688440
vt 0.450000 0.688440
vt 0.462500 0.688440
vt 0.475000 0.688440
vt 0.487500 0.688440
vt 0.612500 0.688440
vt 0.625000 0.688440
vt 0.343750 0.843750
vt 0.351397 0.892034
vt 0.373591 0.935591
vt 0.408159 0.970159
vt 0.451716 0.992353
vt 0.500000 1.000000
vt 0.548284 0.992353
vt 0.591841 0.970159
vt 0.626409 0.935591
vt 0.648603 0.892034
vt 0.656250 0.843750
vt 0.500000 0.150000
vt 0.500000 0.837500
vn 0.951057 0.000000 -0.309016
vn 0.809017 0.000000 -0.587785
vn 0.809017 0.000000 -0.587785
vn 0.951057 0.000000 -0.309016
vn 0.587785 0.000000 -0.809017
vn 0.587785 0.000000 -0.809017
vn 0.309017 0.000000 -0.951057
vn 0.309017 0.000000 -0.951057
vn 0.000000 0.000000 -1.000000
vn 0.000000 0.000000 -1.000000
vn -0.309017 0.000000 -0.951057
vn -0.309017 0.000000 -0.951057
vn -0.587786 0.000000 -0.809017
vn -0.587786 0.000000 -0.809017
vn -0.809017 0.000000 -0.587785
vn -0.809017 0.000000 -0.587785
vn -0.951057 0.000000 -0.309017
vn -0.951057 0.000000 -0.309017
vn -0.987688 0.000000 -0.156434
vn -0.987688 0.000000 -0.156434
vn 0.987689 0.000000 -0.156432
vn 0.987689 0.000000 -0.156432
vn 0.000000 -1.000000 0.000000
vn 0.000000 -1.000000 0.000000
vn 0.000000 -1.000000 -0.000000
vn 0.000000 -1.000000 -0.000000
vn 0.000000 -1.000000 -0.000000
vn 0.000000 -1.000000 0.000000
vn 0.000000 -1.000000 -0.000000
vn 0.000000 -1.000000 -0.000000
vn 0.000000 -1.000000 0.000000
vn 0.000000 -1.000000 0.000000
vn 0.000000 -1.000000 0.000000
vn 0.000000 -1.000000 0.000000
vn 0.000000 1.000000 0.000000
vn 0.000000 1.000000 0.000000
vn 0.000000 1.000000 -0.000000
vn 0.000000 1.000000 0.000000
vn 0.000000 1.000000 0.000000
vn 0.000000 1.000000 0.000000
vn 0.000000 1.000000 -0.000000
vn 0.000000 1.000000 -0.000000
vn 0.000000 1.000000 0.000000
vn 0.000000 1.000000 0.000000
vn 0.000000 1.000000 0.000000
vn 0.000000 1.000000 0.000000
vn 0.000000 0.000000 1.000000
vn 0.000000 0.000000 1.000000
vn 0.000000 0.000000 1.000000
vn 0.000000 0.000000 1.000000
vn 0.000000 0.000000 1.000000
vn 0.000000 0.000000 1.000000
vn 0.000000 0.000000 1.000000
vn 0.000000 0.000000 1.000000
s 1
g steering
usemtl initialShadingGroup
f 1/12/1 2/13/2 13/25/3 12/24/4
f 2/13/2 3/14/5 14/26/6 13/25/3
f 3/14/5 4/15/7 15/27/8 14/26/6
f 4/15/7 5/16/9 16/28/10 15/27/8
f 5/16/9 6/17/11 17/29/12 16/28/10
f 6/17/11 7/18/13 18/30/14 17/29/12
f 7/18/13 8/19/15 19/31/16 18/30/14
f 8/19/15 9/20/17 20/32/18 19/31/16
f 9/20/17 10/21/19 21/33/20 20/32/18
f 11/22/21 1/23/1 12/35/4 22/34/22
s 2
f 2/2/23 1/1/24 23/47/25
f 3/3/26 2/2/23 23/47/25
f 4/4/27 3/3/26 23/47/25
f 5/5/28 4/4/27 23/47/25
f 6/6/29 5/5/28 23/47/25
f 7/7/30 6/6/29 23/47/25
f 8/8/31 7/7/30 23/47/25
f 9/9/32 8/8/31 23/47/25
f 10/10/33 9/9/32 23/47/25
f 1/1/24 11/11/34 23/47/25
s 3
f 12/45/35 13/44/36 24/48/37
f 13/44/36 14/43/38 24/48/37
f 14/43/38 15/42/39 24/48/37
f 15/42/39 16/41/40 24/48/37
f 16/41/40 17/40/41 24/48/37
f 17/40/41 18/39/42 24/48/37
f 18/39/42 19/38/43 24/48/37
f 19/38/43 20/37/44 24/48/37
f 20/37/44 21/36/45 24/48/37
f 22/46/46 12/45/35 24/48/37
s off
f 21/33/47 10/10/48 23/47/49 24/48/50
f 24/48/51 23/47/52 11/22/53 22/46/54
