# This file uses centimeters as units for non-parametric coordinates.

mtllib ship_sketch.mtl
g default
v -1.137427 -0.420988 0.556436
v 1.137427 -0.420988 0.556436
v -1.137427 -0.056300 0.556436
v 1.137427 -0.056300 0.556436
v -1.137427 -0.056300 -0.556436
v 1.137427 -0.056300 -0.556436
v -1.137427 -0.420988 -0.556436
v 1.137427 -0.420988 -0.556436
v 0.000000 -0.056300 0.403418
v 0.000000 -0.420988 -1.272994
v 0.000000 -0.420988 0.403418
v -0.568714 -0.420988 0.403418
v -0.568714 -0.420988 -1.229336
v -0.568714 -0.056300 -1.355111
v -0.568714 -0.056300 0.403418
v 0.568714 -0.056300 0.403418
v 0.568714 -0.056300 -1.355111
v 0.568714 -0.420988 -1.229336
v 0.568714 -0.420988 0.403418
v -1.137427 0.059788 0.556436
v -0.568714 0.049662 0.403418
v -1.137427 -0.056300 -0.556436
v 0.568714 0.049662 0.403418
v 1.137427 0.059788 0.556436
v 1.137427 -0.056300 -0.556436
v -0.568714 -0.007438 -0.543253
v -1.137427 -0.008090 -0.111287
v 0.568714 -0.007438 -0.543253
v 1.137427 -0.003865 0.000000
v -0.853071 -0.420988 0.479927
v -0.853071 -0.420988 -1.023180
v -0.852711 -0.034763 -1.138969
v -0.853071 0.051222 -0.327270
v -0.853071 0.153350 0.479927
v 0.853071 -0.420988 0.479927
v 0.853071 -0.420988 -1.023180
v 0.853071 -0.034763 -1.138379
v 0.853071 0.053335 -0.271627
v 0.853071 0.153350 0.479927
v -0.914147 -0.420988 0.641514
v -0.624830 -0.420988 0.641514
v -0.594554 -0.044335 0.641514
v -0.914147 0.174146 0.641514
v -0.594554 0.066183 0.641514
v -1.218862 -0.044335 0.641514
v -1.218862 0.078826 0.641514
v -1.148920 -0.420988 0.641514
v 0.914147 -0.420988 0.641514
v 1.148920 -0.420988 0.641514
v 1.218862 -0.044335 0.641514
v 0.914147 0.174146 0.641514
v 1.218862 0.078826 0.641514
v 0.621050 -0.420988 0.641514
v 0.590774 -0.044335 0.641514
v 0.590774 0.066183 0.641514
v -0.568714 0.051597 -1.061279
v -0.568714 0.051597 0.721357
v 0.000000 0.051597 0.721357
v 0.000000 0.051597 -1.181161
v 0.568714 0.051597 0.721357
v 0.568714 0.051597 -1.061279
v -0.914147 -0.044335 0.772296
v -0.914147 -0.420988 0.772296
v -0.634705 -0.420988 0.772296
v -0.594554 -0.044335 0.772296
v -0.914147 0.174146 0.772296
v -0.594554 0.066183 0.772296
v -1.218862 -0.044335 0.772296
v -1.218862 0.078826 0.772296
v -1.166221 -0.420988 0.772296
v 0.914147 -0.044335 0.772296
v 0.914147 -0.420988 0.772296
v 1.166221 -0.420988 0.772296
v 1.218862 -0.044335 0.772296
v 0.914147 0.174146 0.772296
v 1.218862 0.078826 0.772296
v 0.616353 -0.420988 0.772296
v 0.590774 -0.044335 0.772296
v 0.590774 0.066183 0.772296
v -0.498250 -0.420988 -1.355168
v -0.513728 -0.056300 -1.572097
v 0.000000 -0.056300 -1.726820
v 0.000000 -0.420988 -1.509890
v 0.513728 -0.056300 -1.572097
v 0.498250 -0.420988 -1.355168
v 0.000000 -0.025200 -1.726820
v 0.279452 -0.056300 0.403418
v 0.279452 -0.420988 0.403418
v 0.279452 -0.420988 -1.272994
v 0.279452 -0.420988 -1.509890
v 0.279452 -0.056300 -1.726820
v 0.279452 -0.025200 -1.726820
v 0.279452 0.051597 -1.181161
v 0.279452 0.051597 0.721357
v -0.297745 -0.420988 0.403418
v -0.297745 -0.056300 0.403418
v -0.297745 0.051597 0.721357
v -0.297745 0.051597 -1.181161
v -0.297745 -0.025200 -1.726820
v -0.297745 -0.056300 -1.726820
v -0.297745 -0.420988 -1.509890
v -0.297745 -0.420988 -1.272994
v -0.568714 0.078099 -1.061279
v -0.568714 0.078099 0.721357
v -0.297745 0.078099 0.721357
v -0.297745 0.078099 -1.181161
v 0.279452 0.078099 -1.181161
v 0.279452 0.078099 0.721357
v 0.568714 0.078099 0.721357
v 0.568714 0.078099 -1.061279
v 0.000000 0.078099 0.721357
v 0.000000 0.078099 -1.181161
v -0.557105 0.073260 -1.047008
v -0.557105 0.073260 0.705874
v -0.297028 0.073260 0.705677
v -0.297028 0.073260 -1.165087
v 0.279488 0.073260 -1.165084
v 0.279488 0.073260 0.705680
v 0.556324 0.073260 0.705881
v 0.556324 0.073260 -1.047002
v -0.000381 0.073260 0.705480
v -0.000381 0.073260 -1.165284
v 0.568714 -0.055620 0.337826
v 0.568714 -0.055620 -1.274159
v 0.573553 0.048348 0.332287
v 0.573553 -0.007798 -0.535495
v 0.563875 0.050702 -0.999274
v 0.563875 0.050702 0.634809
v -0.557105 0.052233 -1.047008
v -0.557105 0.052233 0.705874
v -0.297028 0.052233 0.705677
v -0.297028 0.052233 -1.165087
v 0.279488 0.052233 -1.165084
v 0.279488 0.052233 0.705680
v 0.556324 0.052233 0.705881
v 0.556324 0.052233 -1.047002
v -0.000381 0.052233 0.705480
v -0.000381 0.052233 -1.165284
v 0.568698 -0.056848 0.337843
v 0.568698 -0.056848 -1.274142
v 0.577693 0.046847 0.332321
v 0.594526 -0.009300 -0.535461
v 0.542869 0.049746 -0.999274
v 0.542869 0.049746 0.634809
vt 0.375000 0.000000
vt 0.625000 0.000000
vt 0.375000 0.250000
vt 0.625000 0.250000
vt 0.375000 0.500000
vt 0.625000 0.500000
vt 0.375000 0.750000
vt 0.625000 0.750000
vt 0.375000 1.000000
vt 0.625000 1.000000
vt 0.875000 0.000000
vt 0.875000 0.250000
vt 0.125000 0.000000
vt 0.125000 0.250000
vt 0.500000 0.250000
vt 0.500000 0.500000
vt 0.500000 0.750000
vt 0.500000 0.000000
vt 0.500000 1.000000
vt 0.437500 0.000000
vt 0.437500 1.000000
vt 0.437500 0.750000
vt 0.437500 0.500000
vt 0.437500 0.250000
vt 0.562500 0.250000
vt 0.562500 0.500000
vt 0.562500 0.750000
vt 0.562500 0.000000
vt 0.562500 1.000000
vt 0.375000 0.250000
vt 0.437500 0.250000
vt 0.375000 0.500000
vt 0.562500 0.250000
vt 0.625000 0.250000
vt 0.625000 0.500000
vt 0.437500 0.375000
vt 0.375000 0.400000
vt 0.562500 0.375000
vt 0.625000 0.375000
vt 0.406250 0.000000
vt 0.406250 1.000000
vt 0.406250 0.750000
vt 0.406250 0.500000
vt 0.406250 0.387500
vt 0.406250 0.250000
vt 0.406250 0.250000
vt 0.593750 0.250000
vt 0.593750 0.000000
vt 0.593750 1.000000
vt 0.593750 0.750000
vt 0.593750 0.500000
vt 0.593750 0.375000
vt 0.593750 0.250000
vt 0.406329 0.500000
vt 0.406250 0.000000
vt 0.437500 0.000000
vt 0.437500 0.250000
vt 0.593750 0.000000
vt 0.625000 0.000000
vt 0.625000 0.250000
vt 0.437500 0.250000
vt 0.406250 0.250000
vt 0.625000 0.250000
vt 0.593750 0.250000
vt 0.375000 0.250000
vt 0.375000 0.250000
vt 0.375000 0.000000
vt 0.562500 0.250000
vt 0.562500 0.000000
vt 0.562500 0.250000
vt 0.437500 0.500000
vt 0.437500 0.250000
vt 0.500000 0.250000
vt 0.500000 0.500000
vt 0.562500 0.250000
vt 0.562500 0.500000
vt 0.406250 0.000000
vt 0.437500 0.000000
vt 0.437500 0.250000
vt 0.593750 0.000000
vt 0.625000 0.000000
vt 0.625000 0.250000
vt 0.437500 0.250000
vt 0.406250 0.250000
vt 0.625000 0.250000
vt 0.593750 0.250000
vt 0.375000 0.250000
vt 0.375000 0.250000
vt 0.375000 0.000000
vt 0.562500 0.250000
vt 0.562500 0.000000
vt 0.562500 0.250000
vt 0.437500 0.750000
vt 0.437500 0.500000
vt 0.500000 0.750000
vt 0.562500 0.500000
vt 0.562500 0.750000
vt 0.500000 0.500000
vt 0.530711 0.250000
vt 0.530711 0.000000
vt 0.530711 1.000000
vt 0.530711 0.750000
vt 0.530711 0.750000
vt 0.530711 0.500000
vt 0.530711 0.500000
vt 0.530711 0.500000
vt 0.530711 0.250000
vt 0.467279 0.000000
vt 0.467279 1.000000
vt 0.467279 0.250000
vt 0.467279 0.250000
vt 0.467279 0.500000
vt 0.467279 0.500000
vt 0.467279 0.500000
vt 0.467279 0.750000
vt 0.467279 0.750000
vt 0.437500 0.500000
vt 0.437500 0.250000
vt 0.467279 0.250000
vt 0.467279 0.500000
vt 0.530711 0.250000
vt 0.562500 0.250000
vt 0.562500 0.500000
vt 0.530711 0.500000
vt -0.000000 -0.000000
vt -0.000000 -0.000000
vt 0.437500 0.500000
vt 0.437500 0.250000
vt 0.562500 0.250000
vt 0.562500 0.500000
vt 0.562500 0.250000
vt 0.562500 0.250000
vt 0.562500 0.375000
vt 0.562500 0.500000
vt 0.562500 1.000000
vt 0.562500 0.750000
vt 0.593750 0.750000
vt 0.593750 1.000000
vt 0.562500 0.500000
vt 0.562500 0.250000
vt 0.437500 0.500000
vt 0.437500 0.250000
vt 0.562500 0.250000
vt 0.562500 0.500000
vt 0.562500 0.250000
vt 0.562500 0.250000
vt 0.562500 0.375000
vt 0.562500 0.500000
vt 0.562500 1.000000
vt 0.562500 0.750000
vt 0.593750 0.750000
vt 0.593750 1.000000
vt 0.562500 0.500000
vt 0.562500 0.250000
vn 0.000000 -0.558199 0.829707
vn 0.000000 0.000000 1.000000
vn 0.000000 0.000000 1.000000
vn 0.000000 -0.558199 0.829707
vn 0.000000 1.000000 0.000000
vn 0.000000 1.000000 0.000000
vn 0.000000 1.000000 0.000000
vn 0.000000 1.000000 0.000000
vn -0.535526 -0.440108 -0.720775
vn -0.535743 -0.439264 -0.721129
vn -0.194667 -0.476096 -0.857576
vn -0.297167 -0.492785 -0.817836
vn -0.000000 -1.000000 -0.000000
vn 0.000000 -1.000000 0.000000
vn 0.000000 -1.000000 0.000000
vn 0.000000 -1.000000 0.000000
vn 0.999221 -0.006797 -0.038868
vn 1.000000 0.000000 0.000000
vn 0.983956 -0.027054 -0.176349
vn 0.998567 -0.006152 -0.053166
vn -1.000000 0.000000 0.000000
vn -0.999221 -0.006797 -0.038868
vn -0.998590 -0.006103 -0.052742
vn -0.983943 -0.027049 -0.176422
vn 0.000000 1.000000 -0.000000
vn 0.000000 1.000000 -0.000000
vn 0.000000 1.000000 0.000000
vn 0.000000 1.000000 0.000000
vn 0.293061 -0.493369 -0.818964
vn 0.199591 -0.476048 -0.856470
vn 0.504025 -0.448642 -0.738024
vn 0.503814 -0.449478 -0.737659
vn 0.000000 -1.000000 0.000000
vn 0.000000 -1.000000 0.000000
vn 0.000000 -1.000000 0.000000
vn 0.000000 -1.000000 -0.000000
vn -0.000000 -0.558199 0.829707
vn -0.000000 0.000000 1.000000
vn -0.000001 0.000000 1.000000
vn -0.000000 -0.558199 0.829707
vn -0.000000 -1.000000 -0.000000
vn 0.000000 -1.000000 0.000000
vn -0.811012 -0.124799 -0.571564
vn -0.454814 0.738567 -0.497658
vn -0.470349 0.463843 -0.750747
vn -0.583763 -0.248390 -0.772996
vn -0.008283 0.995223 -0.097272
vn -0.046414 0.993698 -0.102027
vn 0.242261 0.966893 -0.080167
vn 0.108591 0.990551 -0.083766
vn -0.000000 0.000000 1.000000
vn -0.000000 0.000000 1.000000
vn -0.000000 0.000000 1.000000
vn -0.000000 0.000000 1.000000
vn 0.445062 0.752544 -0.485384
vn 0.019576 0.995205 -0.095834
vn 0.313101 0.942897 -0.113633
vn 0.274321 0.956984 -0.094497
vn 0.810879 -0.124861 -0.571739
vn 0.876072 -0.073117 -0.476604
vn 0.000000 -1.000000 -0.000000
vn 0.000000 -1.000000 0.000000
vn 0.000000 -1.000000 0.000000
vn 0.000000 -1.000000 -0.000001
vn 0.000000 0.000000 1.000000
vn 0.000000 0.000000 1.000000
vn 0.000000 0.000000 1.000000
vn 0.000000 0.000000 1.000000
vn -0.000000 0.000000 1.000000
vn -0.000000 0.000000 1.000000
vn 0.995994 -0.017598 0.087668
vn 1.000000 0.000000 0.000000
vn 1.000000 0.000000 0.000000
vn 0.999698 0.000000 0.024597
vn -0.000000 0.000000 0.000000
vn -0.989788 0.000000 -0.142544
vn -1.000000 0.000000 0.000000
vn -0.958898 0.283455 -0.012927
vn -0.958898 0.283455 -0.012927
vn -0.958898 0.283455 -0.012927
vn -0.958898 0.283455 -0.012927
vn 0.000000 0.000000 1.000000
vn 0.000000 0.000000 1.000000
vn 0.000000 0.000000 0.000000
vn 1.000000 0.000000 0.000000
vn 0.988516 0.000000 -0.151115
vn 0.041095 0.993406 -0.107033
vn 0.324309 0.928943 -0.178573
vn 0.000000 -1.000000 0.000000
vn -0.000000 -1.000000 -0.000001
vn -0.876062 -0.073076 -0.476629
vn -0.315896 0.933912 -0.167388
vn -0.304608 0.946368 -0.107711
vn 0.000000 0.000000 1.000000
vn 0.000000 0.000000 1.000000
vn 0.000000 0.000000 1.000000
vn 0.000000 0.000000 1.000000
vn 0.000000 0.000000 1.000000
vn 0.584087 -0.248021 -0.772870
vn 0.465713 0.481135 -0.742711
vn -0.098253 0.991728 -0.082591
vn -0.237371 0.967966 -0.081839
vn 0.000000 0.000000 1.000000
vn -0.278840 0.954901 -0.102036
vn -0.000000 -1.000000 -0.000001
vn -0.000000 -1.000000 -0.000002
vn 0.984544 -0.040207 0.170459
vn 0.992796 -0.045760 0.110730
vn 0.990602 -0.059202 0.123301
vn 0.997645 0.000000 0.068585
vn 0.035414 0.995701 -0.085585
vn 0.325269 0.945570 -0.009918
vn -0.314822 0.938689 -0.140536
vn -0.835752 -0.057341 -0.546105
vn -0.722406 0.000000 -0.691469
vn -0.000000 -1.000000 -0.000002
vn -0.877074 -0.082748 -0.473175
vn 0.000000 -1.000000 -0.000002
vn 0.000000 -1.000000 -0.000002
vn 0.835752 -0.057341 -0.546105
vn 0.877074 -0.082748 -0.473175
vn 0.722406 0.000000 -0.691469
vn -0.035227 0.995643 -0.086333
vn 0.314822 0.938689 -0.140535
vn -0.990901 -0.028513 0.131537
vn -0.987057 -0.040310 0.155224
vn -0.994205 -0.052488 0.093818
vn -0.995519 -0.040511 0.085447
vn 0.000000 -1.000000 -0.000001
vn -0.322551 0.946475 -0.012049
vn -0.997846 0.004663 0.065436
vn -0.998282 0.000000 0.058590
vn -0.967009 -0.006182 -0.254666
vn -1.000000 -0.000000 0.000000
vn -1.000000 -0.000000 0.000000
vn -0.999998 0.001706 -0.000627
vn 0.000000 -0.946956 0.321363
vn 0.000000 -0.946956 0.321363
vn -0.177310 0.000000 -0.984155
vn 0.000000 -0.946956 0.321362
vn -0.000000 -0.946956 0.321363
vn 0.971875 0.235495 -0.000000
vn 0.971876 0.235495 -0.000000
vn 0.971876 0.235495 -0.000000
vn 0.971876 0.235495 -0.000000
vn 0.181920 0.000000 -0.983313
vn 0.000000 -1.000000 0.000000
vn 0.000000 -1.000000 -0.000000
vn 0.996976 -0.072061 0.029100
vn 0.994956 -0.093017 0.037563
vn 1.000000 0.000000 0.000000
vn 0.020247 0.999795 0.000000
vn 0.320044 0.947402 0.000000
vn -0.298547 0.954395 0.000000
vn -1.000000 0.000000 0.000000
vn -0.991352 -0.121569 -0.049416
vn -0.991352 -0.121569 -0.049416
vn -1.000000 0.000000 0.000000
vn 0.000000 -1.000000 -0.000000
vn -0.984920 -0.160273 -0.065148
vn -0.984920 -0.160273 -0.065148
vn 0.000000 -1.000000 -0.000000
vn 0.000000 -1.000000 -0.000000
vn 0.984920 -0.160273 -0.065148
vn 0.991352 -0.121569 -0.049416
vn 0.991352 -0.121569 -0.049416
vn 0.984920 -0.160273 -0.065148
vn 1.000000 0.000000 0.000000
vn 1.000000 0.000000 0.000000
vn -0.020125 0.999797 0.000000
vn 0.298547 0.954395 0.000000
vn -0.997103 -0.073930 -0.017906
vn -0.998265 -0.057225 -0.013860
vn 0.000000 -1.000000 -0.000000
vn -0.316681 0.948532 0.000000
vn -1.000000 0.000000 0.000000
vn -0.924019 -0.178483 -0.338131
vn -0.929321 -0.151950 -0.336561
vn -0.924019 -0.178483 -0.338131
vn 0.000000 -1.000000 0.000000
vn 0.000000 -1.000000 0.000000
vn 0.946054 -0.007864 -0.323915
vn 0.924019 -0.178483 -0.338131
vn 0.924019 -0.178483 -0.338131
vn 0.929321 -0.151950 -0.336560
vn 0.000000 -1.000000 0.000000
vn 0.000000 -1.000000 0.000000
vn -0.162429 0.970510 -0.178119
vn -0.087146 0.983156 -0.160652
vn -0.039194 0.988048 -0.149080
vn -0.162429 0.970510 -0.178119
vn 0.041960 0.987734 -0.150405
vn 0.085575 0.983140 -0.161596
vn 0.151052 0.972394 -0.177856
vn 0.151052 0.972394 -0.177856
vn 0.805705 0.556015 -0.204172
vn 0.000000 -0.558199 0.829707
vn 0.000000 0.000000 1.000000
vn 0.000000 -1.000000 0.000000
vn 0.000000 -1.000000 0.000000
vn 0.000000 -1.000000 0.000000
vn 0.000000 -0.511229 -0.859444
vn 0.000000 -0.480637 -0.876920
vn 0.000000 0.000000 -1.000000
vn -0.000000 0.990241 -0.139368
vn -0.000000 0.990241 -0.139368
vn 0.000000 1.000000 -0.000000
vn 0.000000 1.000000 -0.000000
vn 0.000000 -0.946956 0.321363
vn -1.000000 0.000000 0.000000
vn -1.000000 0.000000 0.000000
vn -1.000000 0.000000 0.000000
vn -1.000000 0.000000 0.000000
vn 0.000000 0.000000 1.000000
vn 0.000000 0.000000 1.000000
vn 0.000000 0.000000 1.000000
vn 0.000000 0.000000 1.000000
vn -0.404593 0.000000 -0.914497
vn -0.404593 0.000000 -0.914497
vn -0.404593 0.000000 -0.914497
vn -0.404593 0.000000 -0.914497
vn -0.000000 0.000000 1.000000
vn -0.000000 0.000000 1.000000
vn -0.000000 0.000000 1.000000
vn -0.000000 0.000000 1.000000
vn 1.000000 0.000000 -0.000000
vn 1.000000 0.000000 -0.000000
vn 1.000000 0.000000 -0.000000
vn 1.000000 0.000000 -0.000000
vn 0.382864 0.000001 -0.923805
vn 0.382864 0.000001 -0.923805
vn 0.382864 0.000001 -0.923805
vn 0.382864 0.000001 -0.923805
vn 0.000000 0.000000 1.000000
vn 0.000000 0.000000 1.000000
vn 0.000000 0.000000 1.000000
vn 0.000000 0.000000 1.000000
vn 0.000000 0.000000 -1.000000
vn 0.000000 0.000000 -1.000000
vn 0.000000 0.000000 -1.000000
vn 0.000000 0.000000 -1.000000
vn 0.000000 0.000000 1.000000
vn 0.000000 0.000000 1.000000
vn 0.000000 0.000000 1.000000
vn 0.000000 0.000000 1.000000
vn -0.000000 0.000000 -1.000000
vn -0.000000 0.000000 -1.000000
vn -0.000000 0.000000 -1.000000
vn -0.000000 0.000000 -1.000000
vn 0.255720 0.957849 0.130892
vn 0.248603 0.961931 -0.113515
vn 0.342897 0.938681 -0.036050
vn 0.362464 0.931698 0.023628
vn -0.000103 0.955545 -0.294845
vn -0.000103 0.955560 -0.294796
vn 0.042028 0.959339 0.279109
vn 0.068459 0.959851 0.272027
vn 0.000105 0.955503 -0.294980
vn -0.239163 0.964788 -0.109479
vn -0.323025 0.945673 -0.036847
vn 0.000105 0.955503 -0.294981
vn -0.246268 0.960818 0.127201
vn -0.341683 0.939485 0.024904
vn -0.042658 0.959297 0.279157
vn -0.068116 0.959748 0.272478
vn 0.000001 0.956042 -0.293230
vn 0.000000 0.956042 -0.293230
vn -0.000001 0.957061 0.289887
vn 0.000000 0.957061 0.289887
vn -0.999127 0.022095 -0.035465
vn -0.999127 0.022095 -0.035465
vn 0.229050 -0.971524 0.060636
vn 0.229050 -0.971524 0.060636
vn -0.016821 -0.997799 0.064148
vn 0.037813 -0.997305 0.062870
vn -0.751707 -0.658068 0.043380
vn -0.751707 -0.658068 0.043380
vn -0.751708 -0.658068 0.043380
vn -0.751708 -0.658068 0.043380
vn 0.997197 -0.066822 0.033654
vn 0.997197 -0.066822 0.033654
vn 0.997197 -0.066822 0.033654
vn 0.997197 -0.066822 0.033654
vn 0.181918 -0.983314 0.000000
vn 0.181918 -0.983314 0.000000
vn 0.090216 -0.995922 0.000000
vn 0.090817 -0.995646 0.021010
vn 0.993024 0.113559 -0.031745
vn 0.993024 0.113559 -0.031745
vn 0.993024 0.113559 -0.031745
vn 0.993024 0.113559 -0.031745
vn 1.000000 0.000000 0.000000
vn 1.000000 0.000000 0.000000
vn 1.000000 0.000000 0.000000
vn 1.000000 0.000000 0.000000
vn -0.000758 0.000000 -1.000000
vn -0.000708 0.000000 -1.000000
vn -0.000708 0.000000 -1.000000
vn -0.000758 0.000000 -1.000000
vn 0.207813 0.000000 0.978169
vn 0.413403 0.000000 0.910548
vn 0.413403 0.000000 0.910548
vn 0.207813 0.000000 0.978169
vn 0.000720 0.000000 -1.000000
vn 0.000724 0.000000 -1.000000
vn 0.000724 0.000000 -1.000000
vn 0.000720 0.000000 -1.000000
vn -1.000000 0.000000 0.000000
vn -1.000000 0.000000 0.000000
vn -1.000000 0.000000 0.000000
vn -1.000000 0.000000 0.000000
vn -0.392341 0.000000 0.919820
vn -0.207829 0.000000 0.978165
vn -0.207829 0.000000 0.978165
vn -0.392341 0.000000 0.919820
vn 0.000005 0.000000 -1.000000
vn 0.000005 0.000000 -1.000000
vn -0.000005 0.000000 1.000000
vn -0.000005 0.000000 1.000000
vn -0.021901 -0.051720 -0.998421
vn -0.021901 -0.051720 -0.998421
vn -0.021901 -0.051720 -0.998421
vn -0.021901 -0.051720 -0.998421
vn -0.122972 -0.990315 0.064453
vn -0.118656 -0.990937 0.062964
vn -0.059600 -0.985007 0.161892
vn -0.072532 -0.986858 0.144396
vn 0.049915 -0.998303 0.029979
vn 0.045466 -0.998966 0.000000
vn -0.097477 0.935251 -0.340298
vn -0.097477 0.935252 -0.340298
vn -0.097477 0.935251 -0.340298
vn -0.097477 0.935252 -0.340298
s 1
g pCube1
usemtl initialShadingGroup
f 15/24/1 12/20/2 95/108/3 96/110/4
s 2
f 129/141/5 130/142/6 131/119/7 132/120/8
s 3
f 80/93/9 81/94/10 100/114/11 101/115/12
s 4
f 12/21/13 13/22/14 102/116/15 95/109/16
s 5
f 2/2/17 8/11/18 6/12/19 4/4/20
s 6
f 7/13/21 1/1/22 3/3/23 5/14/24
s 2
f 133/124/25 134/121/26 135/143/27 136/144/28
s 3
f 90/103/29 91/104/30 84/96/31 85/97/32
s 4
f 88/101/33 89/102/34 18/27/35 19/29/36
s 1
f 87/99/37 88/100/38 19/28/39 16/25/40
s 4
f 30/41/41 31/42/42 13/22/14 12/21/13
s 6
f 31/42/43 32/43/44 14/23/45 13/22/46
f 33/44/47 34/45/48 21/31/49 26/36/50
s 13
f 62/46/51 63/77/52 64/78/53 65/79/54
s 5
f 37/51/55 38/52/56 29/39/57 25/35/58
f 36/50/59 37/51/55 6/6/19 8/8/60
s 4
f 35/49/61 36/50/62 8/8/63 2/10/64
s 16
f 71/47/65 72/80/66 73/81/67 74/82/68
s 13
f 66/84/69 62/46/51 65/79/54 67/83/70
s 17
f 15/24/71 14/23/72 26/36/73 21/31/74
s 6
f 32/43/44 5/5/24 22/32/75
f 5/5/24 3/3/23 20/30/76 27/37/77 22/32/75
s off
f 140/148/78 139/145/79 141/146/80 142/147/81
s 16
f 75/86/82 71/47/65 74/82/68 76/85/83
s 5
f 4/4/20 6/6/19 25/35/84 29/39/85 24/34/86
f 6/6/19 37/51/55 25/35/84
s 6
f 32/54/44 33/44/47 26/36/50 14/23/45
s 5
f 29/39/57 38/52/56 39/53/87 24/34/88
s 4
f 7/7/89 31/42/42 30/41/41 1/9/90
s 6
f 5/5/24 32/43/44 31/42/43 7/7/91
f 20/30/92 34/45/48 33/44/47 27/37/93
s 13
f 68/88/94 62/46/51 66/84/69 69/87/95
f 70/89/96 63/77/52 62/46/51 68/88/94
s 16
f 78/90/97 77/91/98 72/80/66 71/47/65
s 4
f 19/149/36 18/150/35 36/151/62 35/152/61
s 5
f 18/27/99 17/26/100 37/51/55 36/50/59
f 39/53/87 38/52/56 28/38/101 23/33/102
s 16
f 78/90/97 71/47/65 75/86/82 79/92/103
s 5
f 17/26/100 28/38/101 38/52/56 37/51/55
s 6
f 27/37/93 33/44/47 32/54/44 22/32/104
s 4
f 30/40/41 12/20/13 41/56/105 40/55/106
s 17
f 12/20/107 15/24/71 42/57/108 41/56/109
f 15/48/71 21/2/74 44/59/110 42/58/108
s 6
f 21/2/49 34/4/48 43/60/111 44/59/112
f 34/24/48 20/31/92 46/61/113 43/57/111
f 20/31/76 3/45/23 45/62/114 46/61/115
s 4
f 1/4/90 30/34/41 40/63/106 47/60/116
s 6
f 3/34/23 1/53/22 47/64/117 45/63/114
s 4
f 35/45/61 2/30/64 49/65/118 48/62/119
s 5
f 2/30/17 4/3/20 50/66/120 49/65/121
f 4/1/20 24/40/86 52/55/122 50/67/120
f 24/3/88 39/1/87 51/67/123 52/66/124
s 18
f 16/25/125 19/28/126 53/69/127 54/68/128
s 4
f 19/28/36 35/48/61 48/58/119 53/69/129
s 5
f 39/53/87 23/33/102 55/70/130 51/64/123
s 18
f 23/33/131 16/25/125 54/68/128 55/70/132
s 19
f 14/23/133 15/24/134 57/72/135 56/71/136
s 1
f 15/24/1 96/110/4 97/111/137 57/72/138
s 3
f 99/113/139 100/114/11 81/94/10
s 1
f 94/107/140 87/99/37 16/25/40 60/75/141
s off
f 139/145/142 140/148/143 143/153/144 144/154/145
s 3
f 84/96/31 91/104/30 92/105/146
s 4
f 40/55/106 41/56/105 64/78/147 63/77/148
s 17
f 41/56/109 42/57/108 65/79/149 64/78/150
f 42/58/108 44/59/110 67/81/151 65/80/149
s 6
f 44/59/112 43/60/111 66/82/152 67/81/153
f 43/57/111 46/61/113 69/83/154 66/79/152
s 20
f 46/61/155 45/62/156 68/84/157 69/83/158
s 4
f 47/60/116 40/63/106 63/85/148 70/82/159
s 20
f 45/63/156 47/64/160 70/86/161 68/85/157
s 4
f 48/62/119 49/65/118 73/87/162 72/84/163
s 21
f 49/65/164 50/66/165 74/88/166 73/87/167
f 50/67/165 52/55/168 76/77/169 74/89/166
s 5
f 52/66/124 51/67/123 75/89/170 76/88/171
s 18
f 54/68/128 53/69/127 77/91/172 78/90/173
s 4
f 53/69/129 48/58/119 72/80/163 77/91/174
s 5
f 51/64/123 55/70/130 79/92/175 75/86/170
s 18
f 55/70/132 54/68/128 78/90/173 79/92/176
s 19
f 13/22/177 14/23/133 81/94/178 80/93/179
s 4
f 101/115/180 102/116/15 13/22/14 80/93/181
s 22
f 17/26/182 18/27/183 85/97/184 84/96/185
s 4
f 18/27/35 89/102/34 90/103/186 85/97/187
s 19
f 14/23/133 56/71/136 81/94/178
s 23
f 56/71/188 98/112/189 99/113/190 81/94/191
f 92/105/192 93/106/193 61/76/194 84/96/195
s 22
f 61/76/196 17/26/182 84/96/185
s 1
f 9/15/197 11/18/198 88/100/38 87/99/37
s 4
f 11/19/199 10/17/200 89/102/34 88/101/33
f 90/103/186 89/102/34 10/17/200 83/95/201
s 3
f 83/95/202 82/16/203 91/104/30 90/103/29
f 92/105/146 91/104/30 82/16/203 86/98/204
s 23
f 59/74/205 93/106/193 92/105/192 86/98/206
s 2
f 138/126/207 137/125/208 134/121/26 133/124/25
s 1
f 9/15/197 87/99/37 94/107/140 58/73/209
f 96/110/4 95/108/3 11/18/198 9/15/197
f 97/111/137 96/110/4 9/15/197 58/73/209
s 2
f 132/120/8 131/119/7 137/125/208 138/126/207
s 23
f 99/113/190 98/112/189 59/74/205 86/98/206
s 3
f 82/16/203 100/114/11 99/113/139 86/98/204
f 101/115/12 100/114/11 82/16/203 83/95/202
s 4
f 10/17/200 102/116/15 101/115/180 83/95/201
f 95/109/16 102/116/15 10/17/200 11/19/199
s off
f 56/71/210 57/72/211 104/118/212 103/117/213
f 57/72/214 97/111/215 105/119/216 104/118/217
f 98/112/218 56/71/219 103/117/220 106/120/221
f 94/107/222 60/75/223 109/122/224 108/121/225
f 60/75/226 61/76/227 110/123/228 109/122/229
f 61/76/230 93/106/231 107/124/232 110/123/233
f 58/73/234 94/107/235 108/121/236 111/125/237
f 93/106/238 59/74/239 112/126/240 107/124/241
f 97/111/242 58/73/243 111/125/244 105/119/245
f 59/74/246 98/112/247 106/120/248 112/126/249
s 25
f 103/117/250 104/118/251 114/128/252 113/127/253
f 104/118/251 105/119/254 115/119/255 114/128/252
f 106/120/256 103/117/250 113/127/253 116/120/257
f 108/121/258 109/122/259 119/129/260 118/121/261
f 109/122/259 110/123/262 120/130/263 119/129/260
f 110/123/262 107/124/264 117/124/265 120/130/263
f 111/25/266 108/33/258 118/132/261 121/131/267
f 107/33/264 112/38/268 122/133/269 117/132/265
f 105/38/254 111/26/266 121/134/267 115/133/255
f 112/29/268 106/27/256 116/136/257 122/135/269
s 18
f 16/27/125 23/50/131 125/137/270 123/136/271
s 27
f 23/50/272 28/49/273 126/138/274 125/137/275
s off
f 28/49/276 17/29/277 124/135/278 126/138/279
f 17/26/280 61/76/281 127/139/282 124/134/283
s 27
f 61/76/284 60/75/285 128/140/286 127/139/287
s off
f 60/75/288 16/25/289 123/131/290 128/140/291
f 113/127/292 114/128/293 130/142/294 129/141/295
s 29
f 114/128/296 115/119/297 131/119/298 130/142/299
s 30
f 116/120/300 113/127/301 129/141/302 132/120/303
s 29
f 118/121/304 119/129/305 135/143/306 134/121/307
s off
f 119/129/308 120/130/309 136/144/310 135/143/311
s 30
f 120/130/312 117/124/313 133/124/314 136/144/315
s 29
f 121/131/316 118/132/304 134/146/307 137/145/317
s 30
f 117/132/313 122/133/318 138/147/319 133/146/314
s 29
f 115/133/297 121/134/316 137/148/317 131/147/298
s 30
f 122/135/318 116/136/300 132/150/303 138/149/319
s off
f 123/136/320 125/137/321 141/151/322 139/150/323
s 27
f 125/137/275 126/138/274 142/152/324 141/151/325
f 126/138/274 124/135/326 140/149/327 142/152/324
f 124/134/326 127/139/287 143/153/328 140/148/327
f 127/139/287 128/140/286 144/154/329 143/153/328
s off
f 128/140/330 123/131/331 139/145/332 144/154/333
