# This file uses centimeters as units for non-parametric coordinates.

mtllib ui_compas.mtl
g default
v 1.000000 0.000000 -0.000000
v 0.980785 0.000000 -0.195090
v 0.923879 0.000000 -0.382683
v 0.831469 0.000000 -0.555570
v 0.707107 0.000000 -0.707107
v 0.555570 0.000000 -0.831470
v 0.382683 0.000000 -0.923879
v 0.195090 0.000000 -0.980785
v -0.000000 0.000000 -1.000000
v -0.195090 0.000000 -0.980785
v -0.382683 0.000000 -0.923879
v -0.555570 0.000000 -0.831469
v -0.707107 0.000000 -0.707106
v -0.831469 0.000000 -0.555570
v -0.923879 0.000000 -0.382683
v -0.980785 0.000000 -0.195090
v -0.999999 0.000000 0.000000
v -0.980785 0.000000 0.195091
v -0.923879 0.000000 0.382683
v -0.831469 0.000000 0.555570
v -0.707106 0.000000 0.707106
v -0.555569 0.000000 0.831469
v -0.382683 0.000000 0.923879
v -0.195090 0.000000 0.980784
v 0.000000 0.000000 0.999999
v 0.195091 0.000000 0.980784
v 0.382683 0.000000 0.923878
v 0.555570 0.000000 0.831468
v 0.707106 0.000000 0.707106
v 0.831469 0.000000 0.555569
v 0.923879 0.000000 0.382683
v 0.980784 0.000000 0.195090
v 1.000000 1.000000 0.000000
v 0.980785 1.000000 -0.195090
v 0.923879 1.000000 -0.382683
v 0.831469 1.000000 -0.555570
v 0.707107 1.000000 -0.707107
v 0.555570 1.000000 -0.831470
v 0.382683 1.000000 -0.923879
v 0.195090 1.000000 -0.980785
v -0.000000 1.000000 -1.000000
v -0.195090 1.000000 -0.980785
v -0.382683 1.000000 -0.923879
v -0.555570 1.000000 -0.831469
v -0.707107 1.000000 -0.707106
v -0.831469 1.000000 -0.555570
v -0.923879 1.000000 -0.382683
v -0.980785 1.000000 -0.195090
v -0.999999 1.000000 0.000000
v -0.980785 1.000000 0.195091
v -0.923879 1.000000 0.382683
v -0.831469 1.000000 0.555570
v -0.707106 1.000000 0.707106
v -0.555569 1.000000 0.831469
v -0.382683 1.000000 0.923879
v -0.195090 1.000000 0.980784
v 0.000000 1.000000 0.999999
v 0.195091 1.000000 0.980784
v 0.382683 1.000000 0.923878
v 0.555570 1.000000 0.831468
v 0.707106 1.000000 0.707106
v 0.831469 1.000000 0.555569
v 0.923879 1.000000 0.382683
v 0.980784 1.000000 0.195090
vt 0.000000 1.000000
vt 0.031250 1.000000
vt 0.062500 1.000000
vt 0.093750 1.000000
vt 0.125000 1.000000
vt 0.156250 1.000000
vt 0.187500 1.000000
vt 0.218750 1.000000
vt 0.250000 1.000000
vt 0.281250 1.000000
vt 0.312500 1.000000
vt 0.343750 1.000000
vt 0.375000 1.000000
vt 0.406250 1.000000
vt 0.437500 1.000000
vt 0.468750 1.000000
vt 0.500000 1.000000
vt 0.531250 1.000000
vt 0.562500 1.000000
vt 0.593750 1.000000
vt 0.625000 1.000000
vt 0.656250 1.000000
vt 0.687500 1.000000
vt 0.718750 1.000000
vt 0.750000 1.000000
vt 0.781250 1.000000
vt 0.812500 1.000000
vt 0.843750 1.000000
vt 0.875000 1.000000
vt 0.906250 1.000000
vt 0.937500 1.000000
vt 0.968750 1.000000
vt 1.000000 1.000000
vt 0.000000 0.750000
vt 0.031250 0.750000
vt 0.062500 0.750000
vt 0.093750 0.750000
vt 0.125000 0.750000
vt 0.156250 0.750000
vt 0.187500 0.750000
vt 0.218750 0.750000
vt 0.250000 0.750000
vt 0.281250 0.750000
vt 0.312500 0.750000
vt 0.343750 0.750000
vt 0.375000 0.750000
vt 0.406250 0.750000
vt 0.437500 0.750000
vt 0.468750 0.750000
vt 0.500000 0.750000
vt 0.531250 0.750000
vt 0.562500 0.750000
vt 0.593750 0.750000
vt 0.625000 0.750000
vt 0.656250 0.750000
vt 0.687500 0.750000
vt 0.718750 0.750000
vt 0.750000 0.750000
vt 0.781250 0.750000
vt 0.812500 0.750000
vt 0.843750 0.750000
vt 0.875000 0.750000
vt 0.906250 0.750000
vt 0.937500 0.750000
vt 0.968750 0.750000
vt 1.000000 0.750000
vn -0.980785 0.000000 0.195091
vn -1.000000 0.000000 -0.000003
vn -1.000000 0.000000 -0.000003
vn -0.980785 0.000000 0.195091
vn -0.923879 0.000000 0.382684
vn -0.923879 0.000000 0.382684
vn -0.831470 0.000000 0.555570
vn -0.831470 0.000000 0.555570
vn -0.707107 0.000000 0.707107
vn -0.707107 0.000000 0.707107
vn -0.555570 0.000000 0.831470
vn -0.555570 0.000000 0.831470
vn -0.382683 0.000000 0.923880
vn -0.382683 0.000000 0.923880
vn -0.195090 0.000000 0.980785
vn -0.195090 0.000000 0.980785
vn 0.000000 0.000000 1.000000
vn 0.000000 0.000000 1.000000
vn 0.195091 0.000000 0.980785
vn 0.195091 0.000000 0.980785
vn 0.382684 0.000000 0.923879
vn 0.382684 0.000000 0.923879
vn 0.555571 0.000000 0.831469
vn 0.555571 0.000000 0.831469
vn 0.707107 0.000000 0.707106
vn 0.707107 0.000000 0.707106
vn 0.831470 0.000000 0.555570
vn 0.831470 0.000000 0.555570
vn 0.923880 0.000000 0.382683
vn 0.923880 0.000000 0.382683
vn 0.980785 0.000000 0.195090
vn 0.980785 0.000000 0.195090
vn 1.000000 0.000000 -0.000001
vn 1.000000 0.000000 -0.000001
vn 0.980785 0.000000 -0.195091
vn 0.980785 0.000000 -0.195091
vn 0.923879 0.000000 -0.382684
vn 0.923879 0.000000 -0.382684
vn 0.831469 0.000000 -0.555571
vn 0.831469 0.000000 -0.555571
vn 0.707106 0.000000 -0.707107
vn 0.707106 0.000000 -0.707107
vn 0.555570 0.000000 -0.831470
vn 0.555570 0.000000 -0.831470
vn 0.382683 0.000000 -0.923880
vn 0.382683 0.000000 -0.923880
vn 0.195090 0.000000 -0.980785
vn 0.195090 0.000000 -0.980785
vn -0.000000 0.000000 -1.000000
vn -0.000000 0.000000 -1.000000
vn -0.195091 0.000000 -0.980785
vn -0.195091 0.000000 -0.980785
vn -0.382684 0.000000 -0.923879
vn -0.382684 0.000000 -0.923879
vn -0.555571 0.000000 -0.831469
vn -0.555571 0.000000 -0.831469
vn -0.707107 0.000000 -0.707106
vn -0.707107 0.000000 -0.707106
vn -0.831470 0.000000 -0.555570
vn -0.831470 0.000000 -0.555570
vn -0.923880 0.000000 -0.382683
vn -0.923880 0.000000 -0.382683
vn -0.980785 0.000000 -0.195093
vn -0.980785 0.000000 -0.195093
s 1
g pPipe1
usemtl initialShadingGroup
f 2/2/1 1/1/2 33/34/3 34/35/4
f 3/3/5 2/2/1 34/35/4 35/36/6
f 4/4/7 3/3/5 35/36/6 36/37/8
f 5/5/9 4/4/7 36/37/8 37/38/10
f 6/6/11 5/5/9 37/38/10 38/39/12
f 7/7/13 6/6/11 38/39/12 39/40/14
f 8/8/15 7/7/13 39/40/14 40/41/16
f 9/9/17 8/8/15 40/41/16 41/42/18
f 10/10/19 9/9/17 41/42/18 42/43/20
f 11/11/21 10/10/19 42/43/20 43/44/22
f 12/12/23 11/11/21 43/44/22 44/45/24
f 13/13/25 12/12/23 44/45/24 45/46/26
f 14/14/27 13/13/25 45/46/26 46/47/28
f 15/15/29 14/14/27 46/47/28 47/48/30
f 16/16/31 15/15/29 47/48/30 48/49/32
f 17/17/33 16/16/31 48/49/32 49/50/34
f 18/18/35 17/17/33 49/50/34 50/51/36
f 19/19/37 18/18/35 50/51/36 51/52/38
f 20/20/39 19/19/37 51/52/38 52/53/40
f 21/21/41 20/20/39 52/53/40 53/54/42
f 22/22/43 21/21/41 53/54/42 54/55/44
f 23/23/45 22/22/43 54/55/44 55/56/46
f 24/24/47 23/23/45 55/56/46 56/57/48
f 25/25/49 24/24/47 56/57/48 57/58/50
f 26/26/51 25/25/49 57/58/50 58/59/52
f 27/27/53 26/26/51 58/59/52 59/60/54
f 28/28/55 27/27/53 59/60/54 60/61/56
f 29/29/57 28/28/55 60/61/56 61/62/58
f 30/30/59 29/29/57 61/62/58 62/63/60
f 31/31/61 30/30/59 62/63/60 63/64/62
f 32/32/63 31/31/61 63/64/62 64/65/64
f 1/33/2 32/32/63 64/65/64 33/66/3
g default
v 1.000000 0.000000 -0.000000
v 0.980785 0.000000 -0.195090
v 0.923879 0.000000 -0.382683
v 0.831469 0.000000 -0.555570
v 0.707107 0.000000 -0.707107
v 0.555570 0.000000 -0.831470
v 0.382683 0.000000 -0.923879
v 0.195090 0.000000 -0.980785
v -0.000000 0.000000 -1.000000
v -0.195090 0.000000 -0.980785
v -0.382683 0.000000 -0.923879
v -0.555570 0.000000 -0.831469
v -0.707107 0.000000 -0.707106
v -0.831469 0.000000 -0.555570
v -0.923879 0.000000 -0.382683
v -0.980785 0.000000 -0.195090
v -0.999999 0.000000 0.000000
v -0.980785 0.000000 0.195091
v -0.923879 0.000000 0.382683
v -0.831469 0.000000 0.555570
v -0.707106 0.000000 0.707106
v -0.555569 0.000000 0.831469
v -0.382683 0.000000 0.923879
v -0.195090 0.000000 0.980784
v 0.000000 0.000000 0.999999
v 0.195091 0.000000 0.980784
v 0.382683 0.000000 0.923878
v 0.555570 0.000000 0.831468
v 0.707106 0.000000 0.707106
v 0.831469 0.000000 0.555569
v 0.923879 0.000000 0.382683
v 0.980784 0.000000 0.195090
v 1.000000 1.000000 0.000000
v 0.980785 1.000000 -0.195090
v 0.923879 1.000000 -0.382683
v 0.831469 1.000000 -0.555570
v 0.707107 1.000000 -0.707107
v 0.555570 1.000000 -0.831470
v 0.382683 1.000000 -0.923879
v 0.195090 1.000000 -0.980785
v -0.000000 1.000000 -1.000000
v -0.195090 1.000000 -0.980785
v -0.382683 1.000000 -0.923879
v -0.555570 1.000000 -0.831469
v -0.707107 1.000000 -0.707106
v -0.831469 1.000000 -0.555570
v -0.923879 1.000000 -0.382683
v -0.980785 1.000000 -0.195090
v -0.999999 1.000000 0.000000
v -0.980785 1.000000 0.195091
v -0.923879 1.000000 0.382683
v -0.831469 1.000000 0.555570
v -0.707106 1.000000 0.707106
v -0.555569 1.000000 0.831469
v -0.382683 1.000000 0.923879
v -0.195090 1.000000 0.980784
v 0.000000 1.000000 0.999999
v 0.195091 1.000000 0.980784
v 0.382683 1.000000 0.923878
v 0.555570 1.000000 0.831468
v 0.707106 1.000000 0.707106
v 0.831469 1.000000 0.555569
v 0.923879 1.000000 0.382683
v 0.980784 1.000000 0.195090
vt 0.000000 1.000000
vt 0.031250 1.000000
vt 0.062500 1.000000
vt 0.093750 1.000000
vt 0.125000 1.000000
vt 0.156250 1.000000
vt 0.187500 1.000000
vt 0.218750 1.000000
vt 0.250000 1.000000
vt 0.281250 1.000000
vt 0.312500 1.000000
vt 0.343750 1.000000
vt 0.375000 1.000000
vt 0.406250 1.000000
vt 0.437500 1.000000
vt 0.468750 1.000000
vt 0.500000 1.000000
vt 0.531250 1.000000
vt 0.562500 1.000000
vt 0.593750 1.000000
vt 0.625000 1.000000
vt 0.656250 1.000000
vt 0.687500 1.000000
vt 0.718750 1.000000
vt 0.750000 1.000000
vt 0.781250 1.000000
vt 0.812500 1.000000
vt 0.843750 1.000000
vt 0.875000 1.000000
vt 0.906250 1.000000
vt 0.937500 1.000000
vt 0.968750 1.000000
vt 1.000000 1.000000
vt 0.000000 0.750000
vt 0.031250 0.750000
vt 0.062500 0.750000
vt 0.093750 0.750000
vt 0.125000 0.750000
vt 0.156250 0.750000
vt 0.187500 0.750000
vt 0.218750 0.750000
vt 0.250000 0.750000
vt 0.281250 0.750000
vt 0.312500 0.750000
vt 0.343750 0.750000
vt 0.375000 0.750000
vt 0.406250 0.750000
vt 0.437500 0.750000
vt 0.468750 0.750000
vt 0.500000 0.750000
vt 0.531250 0.750000
vt 0.562500 0.750000
vt 0.593750 0.750000
vt 0.625000 0.750000
vt 0.656250 0.750000
vt 0.687500 0.750000
vt 0.718750 0.750000
vt 0.750000 0.750000
vt 0.781250 0.750000
vt 0.812500 0.750000
vt 0.843750 0.750000
vt 0.875000 0.750000
vt 0.906250 0.750000
vt 0.937500 0.750000
vt 0.968750 0.750000
vt 1.000000 0.750000
vn -0.980785 0.000000 0.195091
vn -1.000000 0.000000 -0.000003
vn -1.000000 0.000000 -0.000003
vn -0.980785 0.000000 0.195091
vn -0.923879 0.000000 0.382684
vn -0.923879 0.000000 0.382684
vn -0.831470 0.000000 0.555570
vn -0.831470 0.000000 0.555570
vn -0.707107 0.000000 0.707107
vn -0.707107 0.000000 0.707107
vn -0.555570 0.000000 0.831470
vn -0.555570 0.000000 0.831470
vn -0.382683 0.000000 0.923880
vn -0.382683 0.000000 0.923880
vn -0.195090 0.000000 0.980785
vn -0.195090 0.000000 0.980785
vn 0.000000 0.000000 1.000000
vn 0.000000 0.000000 1.000000
vn 0.195091 0.000000 0.980785
vn 0.195091 0.000000 0.980785
vn 0.382684 0.000000 0.923879
vn 0.382684 0.000000 0.923879
vn 0.555571 0.000000 0.831469
vn 0.555571 0.000000 0.831469
vn 0.707107 0.000000 0.707106
vn 0.707107 0.000000 0.707106
vn 0.831470 0.000000 0.555570
vn 0.831470 0.000000 0.555570
vn 0.923880 0.000000 0.382683
vn 0.923880 0.000000 0.382683
vn 0.980785 0.000000 0.195090
vn 0.980785 0.000000 0.195090
vn 1.000000 0.000000 -0.000001
vn 1.000000 0.000000 -0.000001
vn 0.980785 0.000000 -0.195091
vn 0.980785 0.000000 -0.195091
vn 0.923879 0.000000 -0.382684
vn 0.923879 0.000000 -0.382684
vn 0.831469 0.000000 -0.555571
vn 0.831469 0.000000 -0.555571
vn 0.707106 0.000000 -0.707107
vn 0.707106 0.000000 -0.707107
vn 0.555570 0.000000 -0.831470
vn 0.555570 0.000000 -0.831470
vn 0.382683 0.000000 -0.923880
vn 0.382683 0.000000 -0.923880
vn 0.195090 0.000000 -0.980785
vn 0.195090 0.000000 -0.980785
vn -0.000000 0.000000 -1.000000
vn -0.000000 0.000000 -1.000000
vn -0.195091 0.000000 -0.980785
vn -0.195091 0.000000 -0.980785
vn -0.382684 0.000000 -0.923879
vn -0.382684 0.000000 -0.923879
vn -0.555571 0.000000 -0.831469
vn -0.555571 0.000000 -0.831469
vn -0.707107 0.000000 -0.707106
vn -0.707107 0.000000 -0.707106
vn -0.831470 0.000000 -0.555570
vn -0.831470 0.000000 -0.555570
vn -0.923880 0.000000 -0.382683
vn -0.923880 0.000000 -0.382683
vn -0.980785 0.000000 -0.195093
vn -0.980785 0.000000 -0.195093
s 1
g pPipe1
f 66/68/65 65/67/66 97/100/67 98/101/68
f 67/69/69 66/68/65 98/101/68 99/102/70
f 68/70/71 67/69/69 99/102/70 100/103/72
f 69/71/73 68/70/71 100/103/72 101/104/74
f 70/72/75 69/71/73 101/104/74 102/105/76
f 71/73/77 70/72/75 102/105/76 103/106/78
f 72/74/79 71/73/77 103/106/78 104/107/80
f 73/75/81 72/74/79 104/107/80 105/108/82
f 74/76/83 73/75/81 105/108/82 106/109/84
f 75/77/85 74/76/83 106/109/84 107/110/86
f 76/78/87 75/77/85 107/110/86 108/111/88
f 77/79/89 76/78/87 108/111/88 109/112/90
f 78/80/91 77/79/89 109/112/90 110/113/92
f 79/81/93 78/80/91 110/113/92 111/114/94
f 80/82/95 79/81/93 111/114/94 112/115/96
f 81/83/97 80/82/95 112/115/96 113/116/98
f 82/84/99 81/83/97 113/116/98 114/117/100
f 83/85/101 82/84/99 114/117/100 115/118/102
f 84/86/103 83/85/101 115/118/102 116/119/104
f 85/87/105 84/86/103 116/119/104 117/120/106
f 86/88/107 85/87/105 117/120/106 118/121/108
f 87/89/109 86/88/107 118/121/108 119/122/110
f 88/90/111 87/89/109 119/122/110 120/123/112
f 89/91/113 88/90/111 120/123/112 121/124/114
f 90/92/115 89/91/113 121/124/114 122/125/116
f 91/93/117 90/92/115 122/125/116 123/126/118
f 92/94/119 91/93/117 123/126/118 124/127/120
f 93/95/121 92/94/119 124/127/120 125/128/122
f 94/96/123 93/95/121 125/128/122 126/129/124
f 95/97/125 94/96/123 126/129/124 127/130/126
f 96/98/127 95/97/125 127/130/126 128/131/128
f 65/99/66 96/98/127 128/131/128 97/132/67
